<svg viewBox="0 0 15 15" fill="none" xmlns="http://www.w3.org/2000/svg">
<path d="M1.04353 8.08323L6.7983 13.9501C6.95715 14.1121 7.15239 14.2 7.3758 14.2C7.59921 14.2 7.79444 14.1121 7.95329 13.9501C8.11211 13.7882 8.19682 13.591 8.19682 13.3669C8.19682 13.1498 8.12384 12.9575 7.97399 12.8048L3.5878 8.33312H13.379C13.6079 8.33312 13.809 8.25464 13.9668 8.09378C14.1243 7.9332 14.2 7.73 14.2 7.5C14.2 7.27 14.1243 7.0668 13.9668 6.90622C13.809 6.74536 13.6079 6.66688 13.379 6.66688H3.5878L7.95329 2.21635C8.11211 2.05443 8.19682 1.85719 8.19682 1.63312C8.19682 1.40904 8.11211 1.2118 7.95329 1.04988C7.79444 0.887941 7.59921 0.8 7.3758 0.8C7.1595 0.8 6.96908 0.875778 6.819 1.02878L1.04353 6.91677C0.961158 7.00074 0.895132 7.09308 0.855219 7.19481C0.817479 7.291 0.8 7.3935 0.8 7.5C0.8 7.6065 0.817479 7.709 0.855219 7.80519C0.895132 7.90692 0.961158 7.99926 1.04353 8.08323Z" fill="white" stroke="white" stroke-width="0.4"/>
</svg>
