<svg width="64" height="65" viewBox="0 0 64 65" fill="none" xmlns="http://www.w3.org/2000/svg">
<g id="Group 1174">
<g id="Group 1173">
<g id="Layer 6">
<path id="Vector" d="M62.6546 61.4091H59.291V26.2645C60.6267 25.96 61.8197 25.2116 62.675 24.1415C63.5303 23.0713 63.9975 21.7427 64.0001 20.3727C64.0001 20.2091 63.9705 20.0468 63.9126 19.8937L58.5308 5.76647C58.4337 5.51154 58.2613 5.29215 58.0367 5.1374C57.812 4.98266 57.5456 4.89986 57.2728 4.9H11.5273C11.2545 4.89986 10.9881 4.98266 10.7634 5.1374C10.5388 5.29215 10.3664 5.51154 10.2693 5.76647L4.8875 19.8937C4.82964 20.0468 4.80001 20.2091 4.80005 20.3727C4.80263 21.7427 5.26975 23.0713 6.12509 24.1415C6.98043 25.2116 8.17342 25.96 9.50914 26.2645V61.4091H6.1455C5.78867 61.4091 5.44645 61.5508 5.19412 61.8032C4.9418 62.0555 4.80005 62.3977 4.80005 62.7545C4.80005 63.1114 4.9418 63.4536 5.19412 63.7059C5.44645 63.9583 5.78867 64.1 6.1455 64.1H62.6546C63.0114 64.1 63.3537 63.9583 63.606 63.7059C63.8583 63.4536 64.0001 63.1114 64.0001 62.7545C64.0001 62.3977 63.8583 62.0555 63.606 61.8032C63.3537 61.5508 63.0114 61.4091 62.6546 61.4091ZM12.2 31.8091V26.2645C13.5303 25.9548 14.7161 25.203 15.5637 24.1319C16.1228 24.847 16.8374 25.4253 17.6534 25.823C18.4693 26.2208 19.3651 26.4275 20.2728 26.4275C21.1805 26.4275 22.0763 26.2208 22.8922 25.823C23.7081 25.4253 24.4227 24.847 24.9819 24.1319C25.541 24.847 26.2556 25.4253 27.0716 25.823C27.8875 26.2208 28.7833 26.4275 29.691 26.4275C30.5987 26.4275 31.4944 26.2208 32.3104 25.823C33.1263 25.4253 33.8409 24.847 34.4 24.1319C34.9592 24.847 35.6738 25.4253 36.4897 25.823C37.3057 26.2208 38.2014 26.4275 39.1091 26.4275C40.0168 26.4275 40.9126 26.2208 41.7285 25.823C42.5445 25.4253 43.2591 24.847 43.8182 24.1319C44.3774 24.847 45.092 25.4253 45.9079 25.823C46.7238 26.2208 47.6196 26.4275 48.5273 26.4275C49.435 26.4275 50.3308 26.2208 51.1467 25.823C51.9627 25.4253 52.6773 24.847 53.2364 24.1319C54.084 25.203 55.2698 25.9548 56.6 26.2645V31.8091H12.2ZM7.49903 20.6001L12.4543 7.59091H56.3458L61.3011 20.6001C61.2407 21.4695 60.8454 22.2815 60.1982 22.8651C59.5511 23.4488 58.7027 23.7585 57.8317 23.729C56.9608 23.6995 56.1353 23.3332 55.5291 22.7071C54.9229 22.0811 54.5833 21.2442 54.5819 20.3727C54.5819 20.0159 54.4401 19.6737 54.1878 19.4213C53.9355 19.169 53.5933 19.0273 53.2364 19.0273C52.8796 19.0273 52.5374 19.169 52.285 19.4213C52.0327 19.6737 51.891 20.0159 51.891 20.3727C51.891 21.2648 51.5366 22.1204 50.9058 22.7512C50.275 23.382 49.4194 23.7364 48.5273 23.7364C47.6352 23.7364 46.7797 23.382 46.1489 22.7512C45.5181 22.1204 45.1637 21.2648 45.1637 20.3727C45.1637 20.0159 45.0219 19.6737 44.7696 19.4213C44.5173 19.169 44.1751 19.0273 43.8182 19.0273C43.4614 19.0273 43.1192 19.169 42.8669 19.4213C42.6145 19.6737 42.4728 20.0159 42.4728 20.3727C42.4728 21.2648 42.1184 22.1204 41.4876 22.7512C40.8568 23.382 40.0012 23.7364 39.1091 23.7364C38.217 23.7364 37.3615 23.382 36.7307 22.7512C36.0999 22.1204 35.7455 21.2648 35.7455 20.3727C35.7455 20.0159 35.6038 19.6737 35.3514 19.4213C35.0991 19.169 34.7569 19.0273 34.4 19.0273C34.0432 19.0273 33.701 19.169 33.4487 19.4213C33.1963 19.6737 33.0546 20.0159 33.0546 20.3727C33.0546 21.2648 32.7002 22.1204 32.0694 22.7512C31.4386 23.382 30.5831 23.7364 29.691 23.7364C28.7989 23.7364 27.9433 23.382 27.3125 22.7512C26.6817 22.1204 26.3273 21.2648 26.3273 20.3727C26.3273 20.0159 26.1856 19.6737 25.9332 19.4213C25.6809 19.169 25.3387 19.0273 24.9819 19.0273C24.625 19.0273 24.2828 19.169 24.0305 19.4213C23.7782 19.6737 23.6364 20.0159 23.6364 20.3727C23.6364 21.2648 23.282 22.1204 22.6512 22.7512C22.0204 23.382 21.1649 23.7364 20.2728 23.7364C19.3807 23.7364 18.5251 23.382 17.8943 22.7512C17.2635 22.1204 16.9091 21.2648 16.9091 20.3727C16.9091 20.0159 16.7674 19.6737 16.5151 19.4213C16.2627 19.169 15.9205 19.0273 15.5637 19.0273C15.2068 19.0273 14.8646 19.169 14.6123 19.4213C14.36 19.6737 14.2182 20.0159 14.2182 20.3727C14.2168 21.2442 13.8772 22.0811 13.271 22.7071C12.6648 23.3332 11.8393 23.6995 10.9684 23.729C10.0974 23.7585 9.24901 23.4488 8.60187 22.8651C7.95473 22.2815 7.55935 21.4695 7.49903 20.6001ZM12.2 61.4091V34.5H24.3091V61.4091H12.2ZM32.0146 61.4091V55.0491H35.685V61.4091H32.0146ZM47.9151 61.4091V55.0491H51.5855V61.4091H47.9151ZM54.2764 61.4091V42.5727C54.2764 42.2159 54.1347 41.8737 53.8824 41.6213C53.6301 41.369 53.2878 41.2273 52.931 41.2273C52.5742 41.2273 52.2319 41.369 51.9796 41.6213C51.7273 41.8737 51.5855 42.2159 51.5855 42.5727V52.3582H46.5697C46.2128 52.3582 45.8706 52.5 45.6183 52.7523C45.366 53.0046 45.2242 53.3468 45.2242 53.7037V61.4091H43.1455V50.2781H46.5697C46.9265 50.2781 47.2687 50.1364 47.5211 49.8841C47.7734 49.6317 47.9151 49.2895 47.9151 48.9327C47.9151 48.5759 47.7734 48.2336 47.5211 47.9813C47.2687 47.729 46.9265 47.5872 46.5697 47.5872H37.0304C36.6736 47.5872 36.3314 47.729 36.079 47.9813C35.8267 48.2336 35.685 48.5759 35.685 48.9327C35.685 49.2895 35.8267 49.6317 36.079 49.8841C36.3314 50.1364 36.6736 50.2781 37.0304 50.2781H40.4546V61.4091H38.3759V53.7037C38.3759 53.3468 38.2341 53.0046 37.9818 52.7523C37.7295 52.5 37.3873 52.3582 37.0304 52.3582H32.0146V42.5727C32.0146 42.2159 31.8728 41.8737 31.6205 41.6213C31.3682 41.369 31.0259 41.2273 30.6691 41.2273C30.3123 41.2273 29.97 41.369 29.7177 41.6213C29.4654 41.8737 29.3236 42.2159 29.3236 42.5727V61.4091H27V34.5H56.6V61.4091H54.2764Z" fill="#D6F8B8"/>
<path id="Vector_2" d="M52.5636 27.7727H16.2363C15.8795 27.7727 15.5373 27.9145 15.2849 28.1668C15.0326 28.4191 14.8909 28.7613 14.8909 29.1182C14.8909 29.475 15.0326 29.8172 15.2849 30.0696C15.5373 30.3219 15.8795 30.4636 16.2363 30.4636H52.5636C52.9204 30.4636 53.2627 30.3219 53.515 30.0696C53.7673 29.8172 53.909 29.475 53.909 29.1182C53.909 28.7613 53.7673 28.4191 53.515 28.1668C53.2627 27.9145 52.9204 27.7727 52.5636 27.7727Z" fill="#D6F8B8"/>
<path id="Vector_3" d="M21.6182 45.2636C21.2613 45.2636 20.9191 45.4054 20.6668 45.6577C20.4145 45.91 20.2727 46.2523 20.2727 46.6091V50.6455C20.2727 51.0023 20.4145 51.3445 20.6668 51.5968C20.9191 51.8492 21.2613 51.9909 21.6182 51.9909C21.975 51.9909 22.3172 51.8492 22.5695 51.5968C22.8219 51.3445 22.9636 51.0023 22.9636 50.6455V46.6091C22.9636 46.2523 22.8219 45.91 22.5695 45.6577C22.3172 45.4054 21.975 45.2636 21.6182 45.2636Z" fill="#D6F8B8"/>
</g>
<path id="Vector 39" d="M54 6.9C55.4667 7.83333 58.88 11.06 60.8 16.5C61.5313 18.572 61.9763 19.7039 62.2323 20.245L62.4 19.7C62.5651 20.4429 62.6484 21.1246 62.2323 20.245L60.8 24.9L59.2 25.3L58.4 62.1H10.8L11.2 24.9H8.4L6 19.7L12 6.9H54Z" fill="#D6F8B8"/>
</g>
<g id="Layer 5">
<path id="Vector_4" d="M57.8545 57.4091H54.4909V22.2645C55.8266 21.96 57.0196 21.2116 57.875 20.1415C58.7303 19.0713 59.1974 17.7427 59.2 16.3727C59.2 16.2091 59.1704 16.0468 59.1125 15.8937L53.7307 1.76647C53.6336 1.51154 53.4613 1.29215 53.2366 1.1374C53.0119 0.982656 52.7455 0.899861 52.4727 0.900002H6.72727C6.45446 0.899861 6.18806 0.982656 5.96339 1.1374C5.73872 1.29215 5.56639 1.51154 5.46927 1.76647L0.087454 15.8937C0.029589 16.0468 -4.13077e-05 16.2091 4.3221e-08 16.3727C0.00258291 17.7427 0.469705 19.0713 1.32504 20.1415C2.18038 21.2116 3.37337 21.96 4.70909 22.2645V57.4091H1.34545C0.988618 57.4091 0.646396 57.5508 0.394075 57.8032C0.141753 58.0555 4.3221e-08 58.3977 4.3221e-08 58.7545C4.3221e-08 59.1114 0.141753 59.4536 0.394075 59.7059C0.646396 59.9583 0.988618 60.1 1.34545 60.1H57.8545C58.2114 60.1 58.5536 59.9583 58.8059 59.7059C59.0582 59.4536 59.2 59.1114 59.2 58.7545C59.2 58.3977 59.0582 58.0555 58.8059 57.8032C58.5536 57.5508 58.2114 57.4091 57.8545 57.4091ZM7.4 27.8091V22.2645C8.73024 21.9548 9.91607 21.203 10.7636 20.1319C11.3228 20.847 12.0374 21.4253 12.8533 21.823C13.6692 22.2208 14.565 22.4275 15.4727 22.4275C16.3804 22.4275 17.2762 22.2208 18.0921 21.823C18.9081 21.4253 19.6227 20.847 20.1818 20.1319C20.741 20.847 21.4556 21.4253 22.2715 21.823C23.0874 22.2208 23.9832 22.4275 24.8909 22.4275C25.7986 22.4275 26.6944 22.2208 27.5103 21.823C28.3262 21.4253 29.0409 20.847 29.6 20.1319C30.1591 20.847 30.8738 21.4253 31.6897 21.823C32.5056 22.2208 33.4014 22.4275 34.3091 22.4275C35.2168 22.4275 36.1126 22.2208 36.9285 21.823C37.7444 21.4253 38.459 20.847 39.0182 20.1319C39.5773 20.847 40.2919 21.4253 41.1079 21.823C41.9238 22.2208 42.8196 22.4275 43.7273 22.4275C44.635 22.4275 45.5308 22.2208 46.3467 21.823C47.1626 21.4253 47.8772 20.847 48.4364 20.1319C49.2839 21.203 50.4698 21.9548 51.8 22.2645V27.8091H7.4ZM2.69898 16.6001L7.65429 3.59091H51.5457L56.501 16.6001C56.4407 17.4695 56.0453 18.2815 55.3982 18.8651C54.751 19.4488 53.9026 19.7585 53.0317 19.729C52.1607 19.6995 51.3352 19.3332 50.729 18.7071C50.1228 18.0811 49.7832 17.2442 49.7818 16.3727C49.7818 16.0159 49.6401 15.6737 49.3877 15.4213C49.1354 15.169 48.7932 15.0273 48.4364 15.0273C48.0795 15.0273 47.7373 15.169 47.485 15.4213C47.2327 15.6737 47.0909 16.0159 47.0909 16.3727C47.0909 17.2648 46.7365 18.1204 46.1057 18.7512C45.4749 19.382 44.6194 19.7364 43.7273 19.7364C42.8352 19.7364 41.9796 19.382 41.3488 18.7512C40.718 18.1204 40.3636 17.2648 40.3636 16.3727C40.3636 16.0159 40.2219 15.6737 39.9696 15.4213C39.7172 15.169 39.375 15.0273 39.0182 15.0273C38.6613 15.0273 38.3191 15.169 38.0668 15.4213C37.8145 15.6737 37.6727 16.0159 37.6727 16.3727C37.6727 17.2648 37.3183 18.1204 36.6875 18.7512C36.0567 19.382 35.2012 19.7364 34.3091 19.7364C33.417 19.7364 32.5614 19.382 31.9306 18.7512C31.2998 18.1204 30.9455 17.2648 30.9455 16.3727C30.9455 16.0159 30.8037 15.6737 30.5514 15.4213C30.2991 15.169 29.9568 15.0273 29.6 15.0273C29.2432 15.0273 28.9009 15.169 28.6486 15.4213C28.3963 15.6737 28.2545 16.0159 28.2545 16.3727C28.2545 17.2648 27.9002 18.1204 27.2694 18.7512C26.6386 19.382 25.783 19.7364 24.8909 19.7364C23.9988 19.7364 23.1433 19.382 22.5125 18.7512C21.8817 18.1204 21.5273 17.2648 21.5273 16.3727C21.5273 16.0159 21.3855 15.6737 21.1332 15.4213C20.8809 15.169 20.5387 15.0273 20.1818 15.0273C19.825 15.0273 19.4828 15.169 19.2304 15.4213C18.9781 15.6737 18.8364 16.0159 18.8364 16.3727C18.8364 17.2648 18.482 18.1204 17.8512 18.7512C17.2204 19.382 16.3648 19.7364 15.4727 19.7364C14.5806 19.7364 13.7251 19.382 13.0943 18.7512C12.4635 18.1204 12.1091 17.2648 12.1091 16.3727C12.1091 16.0159 11.9673 15.6737 11.715 15.4213C11.4627 15.169 11.1205 15.0273 10.7636 15.0273C10.4068 15.0273 10.0646 15.169 9.81226 15.4213C9.55993 15.6737 9.41818 16.0159 9.41818 16.3727C9.41677 17.2442 9.0772 18.0811 8.47099 18.7071C7.86479 19.3332 7.03926 19.6995 6.16831 19.729C5.29736 19.7585 4.44896 19.4488 3.80182 18.8651C3.15468 18.2815 2.7593 17.4695 2.69898 16.6001ZM7.4 57.4091V30.5H19.5091V57.4091H7.4ZM27.2145 57.4091V51.0491H30.8849V57.4091H27.2145ZM43.1151 57.4091V51.0491H46.7855V57.4091H43.1151ZM49.4764 57.4091V38.5727C49.4764 38.2159 49.3346 37.8737 49.0823 37.6213C48.83 37.369 48.4878 37.2273 48.1309 37.2273C47.7741 37.2273 47.4319 37.369 47.1796 37.6213C46.9272 37.8737 46.7855 38.2159 46.7855 38.5727V48.3582H41.7696C41.4128 48.3582 41.0706 48.5 40.8183 48.7523C40.5659 49.0046 40.4242 49.3468 40.4242 49.7037V57.4091H38.3455V46.2781H41.7696C42.1265 46.2781 42.4687 46.1364 42.721 45.8841C42.9733 45.6317 43.1151 45.2895 43.1151 44.9327C43.1151 44.5759 42.9733 44.2336 42.721 43.9813C42.4687 43.729 42.1265 43.5872 41.7696 43.5872H32.2304C31.8735 43.5872 31.5313 43.729 31.279 43.9813C31.0267 44.2336 30.8849 44.5759 30.8849 44.9327C30.8849 45.2895 31.0267 45.6317 31.279 45.8841C31.5313 46.1364 31.8735 46.2781 32.2304 46.2781H35.6545V57.4091H33.5758V49.7037C33.5758 49.3468 33.4341 49.0046 33.1817 48.7523C32.9294 48.5 32.5872 48.3582 32.2304 48.3582H27.2145V38.5727C27.2145 38.2159 27.0728 37.8737 26.8204 37.6213C26.5681 37.369 26.2259 37.2273 25.8691 37.2273C25.5122 37.2273 25.17 37.369 24.9177 37.6213C24.6654 37.8737 24.5236 38.2159 24.5236 38.5727V57.4091H22.2V30.5H51.8V57.4091H49.4764Z" fill="#344054"/>
<path id="Vector_5" d="M47.7635 23.7727H11.4363C11.0794 23.7727 10.7372 23.9145 10.4849 24.1668C10.2326 24.4191 10.0908 24.7613 10.0908 25.1182C10.0908 25.475 10.2326 25.8172 10.4849 26.0696C10.7372 26.3219 11.0794 26.4636 11.4363 26.4636H47.7635C48.1204 26.4636 48.4626 26.3219 48.7149 26.0696C48.9672 25.8172 49.109 25.475 49.109 25.1182C49.109 24.7613 48.9672 24.4191 48.7149 24.1668C48.4626 23.9145 48.1204 23.7727 47.7635 23.7727Z" fill="#344054"/>
<path id="Vector_6" d="M16.8181 41.2636C16.4613 41.2636 16.1191 41.4054 15.8667 41.6577C15.6144 41.91 15.4727 42.2523 15.4727 42.6091V46.6455C15.4727 47.0023 15.6144 47.3445 15.8667 47.5968C16.1191 47.8492 16.4613 47.9909 16.8181 47.9909C17.1749 47.9909 17.5172 47.8492 17.7695 47.5968C18.0218 47.3445 18.1636 47.0023 18.1636 46.6455V42.6091C18.1636 42.2523 18.0218 41.91 17.7695 41.6577C17.5172 41.4054 17.1749 41.2636 16.8181 41.2636Z" fill="#344054"/>
</g>
</g>
</svg>
