<svg width="61" height="59" viewBox="0 0 61 59" fill="none" xmlns="http://www.w3.org/2000/svg">
<g id="Group 1172">
<g id="Group 1165">
<path id="Vector" d="M43.0246 14.5204C43.0246 7.06382 36.9608 1 29.5042 1C22.0477 1 15.9839 7.06382 15.9839 14.5204C15.9839 21.9769 22.0477 28.0407 29.5042 28.0407C36.9608 28.0407 43.0246 21.9769 43.0246 14.5204ZM29.5042 26.8144C22.7256 26.8144 17.2164 21.299 17.2164 14.5265C17.2164 7.75402 22.7256 2.23248 29.5042 2.23248C36.2829 2.23248 41.7921 7.74785 41.7921 14.5204C41.7921 21.2929 36.2829 26.8144 29.5042 26.8144Z" fill="#344054" stroke="black" stroke-width="0.483333"/>
<path id="Vector_2" d="M14.7145 28.7371C7.25798 28.7371 1.18799 34.8009 1.18799 42.2574C1.18799 49.714 7.25181 55.7778 14.7145 55.7778C22.1772 55.7778 28.2349 49.714 28.2349 42.2574C28.241 34.8071 22.171 28.7371 14.7145 28.7371ZM14.7145 54.5515C7.93584 54.5515 2.42047 49.0361 2.42047 42.2636C2.42047 35.4911 7.93584 29.9696 14.7145 29.9696C21.4932 29.9696 27.0024 35.4849 27.0024 42.2574C27.0024 49.0299 21.4932 54.5515 14.7145 54.5515Z" fill="#344054" stroke="black" stroke-width="0.483333"/>
<path id="Vector_3" d="M44.294 28.7371C36.8375 28.7371 30.7737 34.8009 30.7737 42.2574C30.7737 49.714 36.8375 55.7778 44.294 55.7778C51.7506 55.7778 57.8206 49.714 57.8206 42.2574C57.8144 34.8071 51.7506 28.7371 44.294 28.7371ZM32 42.2636C32 35.4849 37.5154 29.9757 44.2879 29.9757C51.0665 29.9757 56.5819 35.4911 56.5819 42.2636C56.5819 49.0361 51.0727 54.5515 44.294 54.5515C37.5154 54.5515 32 49.0361 32 42.2636Z" fill="#344054" stroke="black" stroke-width="0.483333"/>
<path id="Vector_4" d="M35.6665 11.4391C35.3214 11.4391 35.0503 11.7164 35.0503 12.0554C35.0503 12.3943 35.3276 12.6716 35.6665 12.6716C36.0055 12.6716 36.2828 12.3943 36.2828 12.0554C36.2828 11.7164 36.0116 11.4391 35.6665 11.4391Z" fill="#344054" stroke="black" stroke-width="0.483333"/>
<path id="Vector_5" d="M23.9581 12.0554C23.9581 11.7164 23.6808 11.4391 23.3418 11.4391C23.0029 11.4391 22.7256 11.7164 22.7256 12.0554C22.7256 12.3943 23.0029 12.6716 23.3418 12.6716C23.6808 12.6716 23.9581 12.4005 23.9581 12.0554Z" fill="#344054" stroke="black" stroke-width="0.483333"/>
<path id="Vector_6" d="M35.7097 17.2934C35.4139 17.127 35.038 17.2318 34.8716 17.5276C34.81 17.6324 34.7422 17.7248 34.6744 17.8296C33.5467 19.5859 31.6055 20.6766 29.5041 20.6766C27.4028 20.6766 25.4616 19.592 24.3339 17.8296C24.2661 17.731 24.1983 17.6324 24.1367 17.5276C23.9703 17.2318 23.5944 17.127 23.2986 17.2934C23.0028 17.4598 22.898 17.8357 23.0644 18.1315C24.3708 20.4609 26.842 21.9091 29.5103 21.9091C32.1786 21.9091 34.6498 20.4609 35.9562 18.1315C36.1164 17.8357 36.0055 17.4598 35.7097 17.2934Z" fill="#344054" stroke="black" stroke-width="0.483333"/>
<path id="Vector_7" d="M20.8828 39.1824C20.5377 39.1824 20.2666 39.4597 20.2666 39.7986C20.2666 40.1376 20.5439 40.4149 20.8828 40.4149C21.2218 40.4149 21.4991 40.1376 21.4991 39.7986C21.4991 39.4597 21.2218 39.1824 20.8828 39.1824Z" fill="#344054" stroke="black" stroke-width="0.483333"/>
<path id="Vector_8" d="M9.17444 39.7986C9.17444 39.4597 8.89713 39.1824 8.5582 39.1824H8.55203C8.2131 39.1824 7.93579 39.4597 7.93579 39.7986C7.93579 40.1376 8.2131 40.4149 8.55203 40.4149C8.89097 40.4149 9.17444 40.1376 9.17444 39.7986Z" fill="#344054" stroke="black" stroke-width="0.483333"/>
<path id="Vector_9" d="M50.4563 39.1824C50.1112 39.1824 49.8401 39.4597 49.8401 39.7986C49.8401 40.1376 50.1174 40.4149 50.4563 40.4149C50.7953 40.4149 51.0726 40.1376 51.0726 39.7986C51.0726 39.4597 50.7953 39.1824 50.4563 39.1824Z" fill="#344054" stroke="black" stroke-width="0.483333"/>
<path id="Vector_10" d="M38.7477 39.7986C38.7477 39.4597 38.4704 39.1824 38.1314 39.1824H38.1253C37.7863 39.1824 37.509 39.4597 37.509 39.7986C37.509 40.1376 37.7863 40.4149 38.1253 40.4149C38.4642 40.4149 38.7477 40.1376 38.7477 39.7986Z" fill="#344054" stroke="black" stroke-width="0.483333"/>
<path id="Vector_11" d="M44.294 44.9504C41.6257 44.9504 39.1545 46.3986 37.8481 48.728C37.6817 49.0238 37.7865 49.3997 38.0823 49.566C38.1809 49.6215 38.2795 49.6462 38.3842 49.6462C38.5999 49.6462 38.8094 49.5352 38.9204 49.3319C38.982 49.2271 39.0498 49.1347 39.1176 49.0299C40.2453 47.2736 42.1864 46.1829 44.2878 46.1829C46.3892 46.1829 48.3304 47.2675 49.4581 49.0299C49.5259 49.1285 49.5937 49.2271 49.6553 49.3319C49.8217 49.6277 50.1976 49.7324 50.4934 49.566C50.7892 49.3997 50.894 49.0238 50.7276 48.728C49.4273 46.3986 46.9623 44.9504 44.294 44.9504Z" fill="#344054" stroke="black" stroke-width="0.483333"/>
<path id="Vector_12" d="M20.6239 44.9504H8.81058C8.47164 44.9504 8.19434 45.2277 8.19434 45.5666C8.19434 45.9056 8.47164 46.1829 8.81058 46.1829H20.6239C20.9629 46.1829 21.2402 45.9056 21.2402 45.5666C21.2402 45.2277 20.9629 44.9504 20.6239 44.9504Z" fill="#344054" stroke="black" stroke-width="0.483333"/>
</g>
<g id="Group 1171">
<g id="Group 1170">
<g id="Group 1169">
<circle id="Ellipse 282" cx="31.7445" cy="17.1111" r="13.6944" fill="#D6F8B8"/>
<circle id="Ellipse 283" cx="17.2445" cy="44.5" r="13.6944" fill="#D6F8B8"/>
<circle id="Ellipse 284" cx="47.0502" cy="45.3056" r="13.6944" fill="#D6F8B8"/>
</g>
</g>
<g id="Group 1166">
<path id="Vector_13" d="M43.4274 14.5204C43.4274 6.84138 37.1832 0.597222 29.5042 0.597222C21.8253 0.597222 15.5811 6.84138 15.5811 14.5204C15.5811 22.1993 21.8253 28.4435 29.5042 28.4435C37.1832 28.4435 43.4274 22.1993 43.4274 14.5204ZM29.5042 26.4116C22.9482 26.4116 17.6191 21.0767 17.6191 14.5265C17.6191 7.97607 22.9484 2.63526 29.5042 2.63526C36.0603 2.63526 41.3893 7.97017 41.3893 14.5204C41.3893 21.0708 36.0601 26.4116 29.5042 26.4116Z" fill="#344054" stroke="#344054" stroke-width="0.805556"/>
<path id="Vector_14" d="M14.7145 28.3343C7.03577 28.3343 0.78521 34.5782 0.78521 42.2574H28.2349L28.6376 42.2578C28.6376 42.2576 28.6376 42.2575 28.6376 42.2574C28.6438 34.5843 22.3932 28.3343 14.7145 28.3343ZM14.7145 54.1487C8.15816 54.1487 2.82325 48.8135 2.82325 42.2636C2.82325 35.7134 8.15842 30.3723 14.7145 30.3723C21.2706 30.3723 26.5996 35.7072 26.5996 42.2574C26.5996 48.8079 21.2703 54.1487 14.7145 54.1487Z" fill="#344054" stroke="#344054" stroke-width="0.805556"/>
<path id="Vector_15" d="M58.2233 42.2574L58.2233 42.2571C58.217 34.5847 51.9732 28.3343 44.294 28.3343C36.6151 28.3343 30.3709 34.5784 30.3709 42.2574C30.3709 49.9364 36.6151 56.1806 44.294 56.1806C51.9728 56.1806 58.2233 49.9366 58.2233 42.2574ZM32.4028 42.2636C32.4028 35.7075 37.7377 30.3785 44.2879 30.3785C50.8442 30.3785 56.1791 35.7137 56.1791 42.2636C56.1791 48.8138 50.8501 54.1487 44.294 54.1487C37.7377 54.1487 32.4028 48.8135 32.4028 42.2636Z" fill="#344054" stroke="#344054" stroke-width="0.805556"/>
<path id="Vector_16" d="M35.6665 11.0364C35.0964 11.0364 34.6475 11.4966 34.6475 12.0554C34.6475 12.6168 35.1052 13.0744 35.6665 13.0744C36.2279 13.0744 36.6856 12.6168 36.6856 12.0554C36.6856 11.4966 36.2367 11.0364 35.6665 11.0364Z" fill="#344054" stroke="#344054" stroke-width="0.805556"/>
<path id="Vector_17" d="M24.3608 12.0554C24.3608 11.494 23.9032 11.0364 23.3418 11.0364C22.7804 11.0364 22.3228 11.494 22.3228 12.0554C22.3228 12.6168 22.7804 13.0744 23.3418 13.0744C23.9006 13.0744 24.3608 12.6255 24.3608 12.0554Z" fill="#344054" stroke="#344054" stroke-width="0.805556"/>
<path id="Vector_18" d="M34.3363 17.6108L34.3355 17.6119C33.28 19.2558 31.4649 20.2738 29.5041 20.2738C27.5427 20.2738 25.7282 19.2614 24.6731 17.6125L24.6733 17.6124L24.6658 17.6014C24.5975 17.502 24.5383 17.4157 24.4855 17.3262C24.2087 16.839 23.589 16.668 23.1011 16.9424C22.6111 17.218 22.4383 17.8394 22.7131 18.3285C24.0907 20.7849 26.6961 22.3119 29.5103 22.3119C32.3245 22.3119 34.9299 20.7849 36.3075 18.3285L36.3075 18.3286L36.3104 18.3234C36.5772 17.8306 36.3911 17.2146 35.9072 16.9424L35.7097 17.2934L35.9072 16.9424C35.4193 16.668 34.7997 16.839 34.5228 17.3261C34.4894 17.3827 34.4604 17.4255 34.4248 17.4778C34.3998 17.5146 34.3715 17.5562 34.3363 17.6108Z" fill="#344054" stroke="#344054" stroke-width="0.805556"/>
<path id="Vector_19" d="M20.8828 38.7796C20.3127 38.7796 19.8638 39.2399 19.8638 39.7986C19.8638 40.36 20.3215 40.8176 20.8828 40.8176C21.4442 40.8176 21.9019 40.36 21.9019 39.7986C21.9019 39.2372 21.4442 38.7796 20.8828 38.7796Z" fill="#344054" stroke="#344054" stroke-width="0.805556"/>
<path id="Vector_20" d="M9.57722 39.7986C9.57722 39.2372 9.11958 38.7796 8.5582 38.7796H8.55203C7.99065 38.7796 7.53301 39.2372 7.53301 39.7986C7.53301 40.36 7.99065 40.8176 8.55203 40.8176C9.10819 40.8176 9.57722 40.3652 9.57722 39.7986Z" fill="#344054" stroke="#344054" stroke-width="0.805556"/>
<path id="Vector_21" d="M50.4563 38.7796C49.8862 38.7796 49.4373 39.2399 49.4373 39.7986C49.4373 40.36 49.8949 40.8176 50.4563 40.8176C51.0177 40.8176 51.4754 40.36 51.4754 39.7986C51.4754 39.2372 51.0177 38.7796 50.4563 38.7796Z" fill="#344054" stroke="#344054" stroke-width="0.805556"/>
<path id="Vector_22" d="M39.1505 39.7986C39.1505 39.2372 38.6928 38.7796 38.1314 38.7796H38.1253C37.5639 38.7796 37.1063 39.2372 37.1063 39.7986C37.1063 40.36 37.5639 40.8176 38.1253 40.8176C38.6814 40.8176 39.1505 40.3652 39.1505 39.7986Z" fill="#344054" stroke="#344054" stroke-width="0.805556"/>
<path id="Vector_23" d="M39.4565 49.2475L39.4557 49.2487C39.4205 49.3032 39.3922 49.3448 39.3671 49.3817C39.332 49.4334 39.3032 49.4758 39.2703 49.5314C39.0827 49.8693 38.7339 50.0489 38.3842 50.0489C38.2105 50.0489 38.0439 50.0066 37.8848 49.9171C37.3947 49.6414 37.2219 49.0199 37.4969 48.5307M39.4565 49.2475L37.8481 48.728M39.4565 49.2475C40.512 47.6037 42.327 46.5857 44.2878 46.5857C46.2493 46.5857 48.0637 47.598 49.1188 49.247L49.1187 49.2471L49.1262 49.2581C49.1945 49.3575 49.2537 49.4438 49.3065 49.5333M39.4565 49.2475L49.3065 49.5333M37.4969 48.5307C37.497 48.5306 37.497 48.5306 37.4971 48.5305L37.8481 48.728M37.4969 48.5307C37.4969 48.5308 37.4968 48.5309 37.4968 48.5309L37.8481 48.728M37.4969 48.5307C38.8746 46.0745 41.4799 44.5476 44.294 44.5476C47.1084 44.5476 49.7079 46.0749 51.0793 48.5316M37.8481 48.728C39.1545 46.3986 41.6257 44.9504 44.294 44.9504C46.9623 44.9504 49.4273 46.3986 50.7276 48.728M51.0793 48.5316C51.0791 48.5313 51.0788 48.5309 51.0786 48.5305L50.7276 48.728M51.0793 48.5316C51.3535 49.0206 51.1806 49.6416 50.6909 49.9171C50.203 50.1915 49.5833 50.0204 49.3065 49.5333M51.0793 48.5316L50.7276 48.728M50.7276 48.728L49.3065 49.5333" fill="#344054" stroke="#344054" stroke-width="0.805556"/>
<path id="Vector_24" d="M20.6239 44.5476H8.81058C8.2492 44.5476 7.79156 45.0053 7.79156 45.5666C7.79156 46.128 8.2492 46.5857 8.81058 46.5857H20.6239C21.1853 46.5857 21.643 46.128 21.643 45.5666C21.643 45.0053 21.1853 44.5476 20.6239 44.5476Z" fill="#344054" stroke="#344054" stroke-width="0.805556"/>
</g>
</g>
</g>
</svg>
