<svg width="54" height="65" viewBox="0 0 54 65" fill="none" xmlns="http://www.w3.org/2000/svg">
<g id="Group 1178">
<g id="Group 1167">
<path id="Vector 36" d="M36.884 5.23623H45.9235L44.2799 6.87977L47.1561 10.9886L36.884 11.3995V5.23623Z" fill="#D6F8B8"/>
<circle id="Ellipse 279" cx="37.2949" cy="26.1913" r="4.51972" fill="#D6F8B8"/>
<circle id="Ellipse 280" cx="23.3249" cy="58.2402" r="4.51972" fill="#D6F8B8"/>
<circle id="Ellipse 281" cx="10.1767" cy="39.3396" r="4.51972" fill="#D6F8B8"/>
<path id="Vector 37" d="M10.5874 18.3845H19.6268L17.9833 20.028L20.8595 24.1369L10.5874 24.5478V18.3845Z" fill="#D6F8B8"/>
<path id="Vector 38" d="M22.9141 36.4634H31.9535L30.31 38.1069L33.1862 42.2157L22.9141 42.6266V36.4634Z" fill="#D6F8B8"/>
<g id="Group 1166">
<g id="Group 1164">
<g id="Group">
<path id="Vector" d="M10.2766 41.0219C9.601 41.0219 9.0542 40.4751 9.0542 39.7995V17.9529C9.0542 17.2773 9.601 16.7305 10.2766 16.7305C10.9521 16.7305 11.4989 17.2773 11.4989 17.9529V39.7995C11.4989 40.4751 10.9521 41.0219 10.2766 41.0219Z" fill="#D6F8B8"/>
</g>
<g id="Group_2">
<path id="Vector_2" d="M25.4182 29.2588C25.4125 29.2588 25.4076 29.258 25.4019 29.2588H10.2766C9.601 29.2588 9.0542 28.712 9.0542 28.0364V17.9529C9.0542 17.2773 9.601 16.7305 10.2766 16.7305H25.4019C25.8966 16.7305 26.3423 17.0288 26.5314 17.4851C26.7205 17.9423 26.6161 18.4679 26.2666 18.8175L22.0894 22.9946L26.1557 27.0618C26.4507 27.2851 26.6406 27.6388 26.6406 28.0364C26.6406 28.712 26.0938 29.2588 25.4182 29.2588ZM11.4989 26.8141H22.4504L19.4955 23.8593C19.2665 23.6303 19.1378 23.319 19.1378 22.9946C19.1378 22.6703 19.2665 22.3598 19.4955 22.13L22.4504 19.1752H11.4989V26.8141Z" fill="#D6F8B8"/>
</g>
<g id="Group_3">
<path id="Vector_3" d="M10.2768 46.0629C6.82321 46.0629 4.01343 43.2531 4.01343 39.7995C4.01343 36.346 6.82321 33.5362 10.2768 33.5362C13.7303 33.5362 16.5401 36.346 16.5401 39.7995C16.5401 43.2531 13.7311 46.0629 10.2768 46.0629ZM10.2768 35.9809C8.17106 35.9809 6.45813 37.6938 6.45813 39.7995C6.45813 41.9053 8.17106 43.6182 10.2768 43.6182C12.3825 43.6182 14.0954 41.9053 14.0954 39.7995C14.0954 37.6938 12.3825 35.9809 10.2768 35.9809Z" fill="#D6F8B8"/>
</g>
<g id="Group_4">
<path id="Vector_4" d="M23.7211 59.5079C23.0456 59.5079 22.4988 58.9611 22.4988 58.2856V36.4389C22.4988 35.7633 23.0456 35.2165 23.7211 35.2165C24.3967 35.2165 24.9435 35.7633 24.9435 36.4389V58.2856C24.9435 58.9611 24.3967 59.5079 23.7211 59.5079Z" fill="#D6F8B8"/>
</g>
<g id="Group_5">
<path id="Vector_5" d="M38.862 47.744C38.8563 47.744 38.8506 47.7432 38.8457 47.744H23.7211C23.0456 47.744 22.4988 47.1972 22.4988 46.5217V36.4389C22.4988 35.7633 23.0456 35.2165 23.7211 35.2165H38.8457C39.3403 35.2165 39.7861 35.5148 39.9752 35.9711C40.1642 36.4283 40.0599 36.9539 39.7103 37.3035L35.5331 41.4807L39.5995 45.5479C39.8945 45.7711 40.0844 46.1248 40.0844 46.5225C40.0844 47.1972 39.5376 47.744 38.862 47.744ZM24.9435 45.2993H35.8949L32.9401 42.3445C32.7111 42.1155 32.5824 41.8042 32.5824 41.4799C32.5824 41.1555 32.7111 40.8451 32.9401 40.6153L35.8949 37.6604H24.9435V45.2993Z" fill="#D6F8B8"/>
</g>
<g id="Group_6">
<path id="Vector_6" d="M23.7209 64.5489C20.2673 64.5489 17.4575 61.7391 17.4575 58.2856C17.4575 54.832 20.2673 52.0222 23.7209 52.0222C27.1744 52.0222 29.9842 54.832 29.9842 58.2856C29.9842 61.7391 27.1744 64.5489 23.7209 64.5489ZM23.7209 54.467C21.616 54.467 19.9022 56.1799 19.9022 58.2856C19.9022 60.3905 21.6151 62.1042 23.7209 62.1042C25.8266 62.1042 27.5395 60.3913 27.5395 58.2856C27.5395 56.1807 25.8266 54.467 23.7209 54.467Z" fill="#D6F8B8"/>
</g>
<g id="Group_7">
<path id="Vector_7" d="M37.1652 27.5785C36.4897 27.5785 35.9429 27.0317 35.9429 26.3561V4.50942C35.9429 3.83387 36.4897 3.28707 37.1652 3.28707C37.8408 3.28707 38.3876 3.83387 38.3876 4.50942V26.3561C38.3876 27.0309 37.84 27.5785 37.1652 27.5785Z" fill="#D6F8B8"/>
</g>
<g id="Group_8">
<path id="Vector_8" d="M52.3061 15.8145C52.3004 15.8145 52.2955 15.8137 52.2898 15.8145H37.1652C36.4897 15.8145 35.9429 15.2678 35.9429 14.5922V4.50942C35.9429 3.83387 36.4897 3.28707 37.1652 3.28707H52.2906C52.7853 3.28707 53.231 3.58532 53.4201 4.04167C53.6091 4.49801 53.5048 5.02444 53.1552 5.37322L48.978 9.5504L53.0452 13.6176C53.3402 13.8409 53.5301 14.1945 53.5301 14.5922C53.5285 15.2678 52.9816 15.8145 52.3061 15.8145ZM38.3876 13.3698H49.339L46.3842 10.415C46.1552 10.186 46.0265 9.87473 46.0265 9.5504C46.0265 9.22607 46.1552 8.91559 46.3842 8.68579L49.339 5.73096H38.3876V13.3698Z" fill="#D6F8B8"/>
</g>
<g id="Group_9">
<path id="Vector_9" d="M37.1655 32.6194C33.712 32.6194 30.9014 29.8097 30.9014 26.3561C30.9014 22.9017 33.7111 20.092 37.1655 20.092C40.6199 20.092 43.4297 22.9017 43.4297 26.3561C43.4289 29.8097 40.6191 32.6194 37.1655 32.6194ZM37.1655 22.5367C35.0598 22.5367 33.3461 24.2504 33.3461 26.3561C33.3461 28.4618 35.0598 30.1747 37.1655 30.1747C39.2712 30.1747 40.985 28.4618 40.985 26.3561C40.9841 24.2496 39.2712 22.5367 37.1655 22.5367Z" fill="#D6F8B8"/>
</g>
</g>
<g id="Group 1163">
<g id="Group_10">
<g id="Vector_10">
<path d="M6.98969 37.7348C6.31413 37.7348 5.76733 37.188 5.76733 36.5125V14.6658C5.76733 13.9902 6.31413 13.4434 6.98969 13.4434C7.66524 13.4434 8.21204 13.9902 8.21204 14.6658V36.5125C8.21204 37.188 7.66524 37.7348 6.98969 37.7348Z" fill="#344054"/>
<path d="M6.98969 37.7348C6.31413 37.7348 5.76733 37.188 5.76733 36.5125V14.6658C5.76733 13.9902 6.31413 13.4434 6.98969 13.4434C7.66524 13.4434 8.21204 13.9902 8.21204 14.6658V36.5125C8.21204 37.188 7.66524 37.7348 6.98969 37.7348Z" stroke="white"/>
</g>
</g>
<g id="Group_11">
<g id="Vector_11">
<path d="M22.1314 25.9717C22.1257 25.9717 22.1208 25.9709 22.1151 25.9717H6.98969C6.31413 25.9717 5.76733 25.4249 5.76733 24.7494V14.6658C5.76733 13.9902 6.31413 13.4434 6.98969 13.4434H22.1151C22.6097 13.4434 23.0555 13.7417 23.2445 14.198C23.4336 14.6552 23.3293 15.1808 22.9797 15.5304L18.8025 19.7076L22.8689 23.7747C23.1639 23.998 23.3537 24.3517 23.3537 24.7494C23.3537 25.4249 22.8069 25.9717 22.1314 25.9717ZM8.21204 23.527H19.1635L16.2087 20.5722C15.9797 20.3432 15.8509 20.0319 15.8509 19.7076C15.8509 19.3832 15.9797 19.0728 16.2087 18.843L19.1635 15.8881H8.21204V23.527Z" fill="#344054"/>
<path d="M22.1314 25.9717C22.1257 25.9717 22.1208 25.9709 22.1151 25.9717H6.98969C6.31413 25.9717 5.76733 25.4249 5.76733 24.7494V14.6658C5.76733 13.9902 6.31413 13.4434 6.98969 13.4434H22.1151C22.6097 13.4434 23.0555 13.7417 23.2445 14.198C23.4336 14.6552 23.3293 15.1808 22.9797 15.5304L18.8025 19.7076L22.8689 23.7747C23.1639 23.998 23.3537 24.3517 23.3537 24.7494C23.3537 25.4249 22.8069 25.9717 22.1314 25.9717ZM8.21204 23.527H19.1635L16.2087 20.5722C15.9797 20.3432 15.8509 20.0319 15.8509 19.7076C15.8509 19.3832 15.9797 19.0728 16.2087 18.843L19.1635 15.8881H8.21204V23.527Z" stroke="white"/>
</g>
</g>
<g id="Group_12">
<g id="Vector_12">
<path d="M6.98965 42.7758C3.5361 42.7758 0.726318 39.966 0.726318 36.5125C0.726318 33.0589 3.5361 30.2491 6.98965 30.2491C10.4432 30.2491 13.253 33.0589 13.253 36.5125C13.253 39.966 10.444 42.7758 6.98965 42.7758ZM6.98965 32.6939C4.88395 32.6939 3.17102 34.4068 3.17102 36.5125C3.17102 38.6182 4.88395 40.3311 6.98965 40.3311C9.09536 40.3311 10.8083 38.6182 10.8083 36.5125C10.8083 34.4068 9.09536 32.6939 6.98965 32.6939Z" fill="#344054"/>
<path d="M6.98965 42.7758C3.5361 42.7758 0.726318 39.966 0.726318 36.5125C0.726318 33.0589 3.5361 30.2491 6.98965 30.2491C10.4432 30.2491 13.253 33.0589 13.253 36.5125C13.253 39.966 10.444 42.7758 6.98965 42.7758ZM6.98965 32.6939C4.88395 32.6939 3.17102 34.4068 3.17102 36.5125C3.17102 38.6182 4.88395 40.3311 6.98965 40.3311C9.09536 40.3311 10.8083 38.6182 10.8083 36.5125C10.8083 34.4068 9.09536 32.6939 6.98965 32.6939Z" stroke="white"/>
</g>
</g>
<g id="Group_13">
<g id="Vector_13">
<path d="M20.434 56.2209C19.7585 56.2209 19.2117 55.6741 19.2117 54.9985V33.1518C19.2117 32.4763 19.7585 31.9295 20.434 31.9295C21.1096 31.9295 21.6564 32.4763 21.6564 33.1518V54.9985C21.6564 55.6741 21.1096 56.2209 20.434 56.2209Z" fill="#344054"/>
<path d="M20.434 56.2209C19.7585 56.2209 19.2117 55.6741 19.2117 54.9985V33.1518C19.2117 32.4763 19.7585 31.9295 20.434 31.9295C21.1096 31.9295 21.6564 32.4763 21.6564 33.1518V54.9985C21.6564 55.6741 21.1096 56.2209 20.434 56.2209Z" stroke="white"/>
</g>
</g>
<g id="Group_14">
<g id="Vector_14">
<path d="M35.5749 44.4569C35.573 44.4569 35.571 44.4568 35.5691 44.4568C35.5654 44.4566 35.5618 44.4564 35.5586 44.4569H20.434C19.7585 44.4569 19.2117 43.9101 19.2117 43.2346V33.1518C19.2117 32.4763 19.7585 31.9295 20.434 31.9295H35.5586C36.0532 31.9295 36.499 32.2277 36.688 32.6841C36.8771 33.1412 36.7728 33.6668 36.4232 34.0164L32.246 38.1936L36.3124 42.2608C36.6074 42.4841 36.7972 42.8377 36.7972 43.2354C36.7972 43.9101 36.2504 44.4569 35.5749 44.4569ZM21.6564 42.0122H32.6078L29.653 39.0574C29.424 38.8284 29.2953 38.5171 29.2953 38.1928C29.2953 37.8685 29.424 37.558 29.653 37.3282L32.6078 34.3733H21.6564V42.0122Z" fill="#344054"/>
<path d="M35.5749 44.4569C35.573 44.4569 35.571 44.4568 35.5691 44.4568C35.5654 44.4566 35.5618 44.4564 35.5586 44.4569H20.434C19.7585 44.4569 19.2117 43.9101 19.2117 43.2346V33.1518C19.2117 32.4763 19.7585 31.9295 20.434 31.9295H35.5586C36.0532 31.9295 36.499 32.2277 36.688 32.6841C36.8771 33.1412 36.7728 33.6668 36.4232 34.0164L32.246 38.1936L36.3124 42.2608C36.6074 42.4841 36.7972 42.8377 36.7972 43.2354C36.7972 43.9101 36.2504 44.4569 35.5749 44.4569ZM21.6564 42.0122H32.6078L29.653 39.0574C29.424 38.8284 29.2953 38.5171 29.2953 38.1928C29.2953 37.8685 29.424 37.558 29.653 37.3282L32.6078 34.3733H21.6564V42.0122Z" stroke="white"/>
</g>
</g>
<g id="Group_15">
<g id="Vector_15">
<path d="M20.4337 61.2619C16.9802 61.2619 14.1704 58.4521 14.1704 54.9985C14.1704 51.545 16.9802 48.7352 20.4337 48.7352C23.8873 48.7352 26.6971 51.545 26.6971 54.9985C26.6971 58.4521 23.8873 61.2619 20.4337 61.2619ZM20.4337 51.1799C18.3289 51.1799 16.6151 52.8928 16.6151 54.9985C16.6151 57.1034 18.328 58.8171 20.4337 58.8171C22.5394 58.8171 24.2524 57.1042 24.2524 54.9985C24.2524 52.8936 22.5394 51.1799 20.4337 51.1799Z" fill="#344054"/>
<path d="M20.4337 61.2619C16.9802 61.2619 14.1704 58.4521 14.1704 54.9985C14.1704 51.545 16.9802 48.7352 20.4337 48.7352C23.8873 48.7352 26.6971 51.545 26.6971 54.9985C26.6971 58.4521 23.8873 61.2619 20.4337 61.2619ZM20.4337 51.1799C18.3289 51.1799 16.6151 52.8928 16.6151 54.9985C16.6151 57.1034 18.328 58.8171 20.4337 58.8171C22.5394 58.8171 24.2524 57.1042 24.2524 54.9985C24.2524 52.8936 22.5394 51.1799 20.4337 51.1799Z" stroke="white"/>
</g>
</g>
<g id="Group_16">
<g id="Vector_16">
<path d="M33.8781 24.2914C33.2026 24.2914 32.6558 23.7446 32.6558 23.069V1.22235C32.6558 0.546799 33.2026 0 33.8781 0C34.5537 0 35.1005 0.546799 35.1005 1.22235V23.069C35.1005 23.7438 34.5529 24.2914 33.8781 24.2914Z" fill="#344054"/>
<path d="M33.8781 24.2914C33.2026 24.2914 32.6558 23.7446 32.6558 23.069V1.22235C32.6558 0.546799 33.2026 0 33.8781 0C34.5537 0 35.1005 0.546799 35.1005 1.22235V23.069C35.1005 23.7438 34.5529 24.2914 33.8781 24.2914Z" stroke="white"/>
</g>
</g>
<g id="Group_17">
<g id="Vector_17">
<path d="M49.019 12.5275C49.0168 12.5275 49.0147 12.5274 49.0126 12.5273C49.0094 12.5271 49.0062 12.527 49.0027 12.5275H33.8781C33.2026 12.5275 32.6558 11.9807 32.6558 11.3051V1.22235C32.6558 0.546799 33.2026 0 33.8781 0H49.0035C49.4981 0 49.9439 0.298254 50.133 0.754599C50.322 1.21094 50.2177 1.73737 49.8681 2.08615L45.6909 6.26333L49.7581 10.3305C50.0531 10.5538 50.243 10.9075 50.243 11.3051C50.2413 11.9807 49.6945 12.5275 49.019 12.5275ZM35.1005 10.0828H46.0519L43.0971 7.12794C42.8681 6.89896 42.7394 6.58766 42.7394 6.26333C42.7394 5.939 42.8681 5.62853 43.0971 5.39872L46.0519 2.44389H35.1005V10.0828Z" fill="#344054"/>
<path d="M49.019 12.5275C49.0168 12.5275 49.0147 12.5274 49.0126 12.5273C49.0094 12.5271 49.0062 12.527 49.0027 12.5275H33.8781C33.2026 12.5275 32.6558 11.9807 32.6558 11.3051V1.22235C32.6558 0.546799 33.2026 0 33.8781 0H49.0035C49.4981 0 49.9439 0.298254 50.133 0.754599C50.322 1.21094 50.2177 1.73737 49.8681 2.08615L45.6909 6.26333L49.7581 10.3305C50.0531 10.5538 50.243 10.9075 50.243 11.3051C50.2413 11.9807 49.6945 12.5275 49.019 12.5275ZM35.1005 10.0828H46.0519L43.0971 7.12794C42.8681 6.89896 42.7394 6.58766 42.7394 6.26333C42.7394 5.939 42.8681 5.62853 43.0971 5.39872L46.0519 2.44389H35.1005V10.0828Z" stroke="white"/>
</g>
</g>
<g id="Group_18">
<g id="Vector_18">
<path d="M33.8784 29.3324C30.4249 29.3324 27.6143 26.5226 27.6143 23.069C27.6143 19.6147 30.424 16.8049 33.8784 16.8049C37.3328 16.8049 40.1426 19.6147 40.1426 23.069C40.1417 26.5226 37.332 29.3324 33.8784 29.3324ZM33.8784 19.2496C31.7727 19.2496 30.059 20.9633 30.059 23.069C30.059 25.1748 31.7727 26.8877 33.8784 26.8877C35.9841 26.8877 37.6979 25.1748 37.6979 23.069C37.697 20.9625 35.9841 19.2496 33.8784 19.2496Z" fill="#344054"/>
<path d="M33.8784 29.3324C30.4249 29.3324 27.6143 26.5226 27.6143 23.069C27.6143 19.6147 30.424 16.8049 33.8784 16.8049C37.3328 16.8049 40.1426 19.6147 40.1426 23.069C40.1417 26.5226 37.332 29.3324 33.8784 29.3324ZM33.8784 19.2496C31.7727 19.2496 30.059 20.9633 30.059 23.069C30.059 25.1748 31.7727 26.8877 33.8784 26.8877C35.9841 26.8877 37.6979 25.1748 37.6979 23.069C37.697 20.9625 35.9841 19.2496 33.8784 19.2496Z" stroke="white"/>
</g>
</g>
</g>
</g>
</g>
<g id="Group 1168">
<path id="Vector 36_2" d="M37.1577 5.23623H46.1972L44.5536 6.87977L47.4298 10.9886L37.1577 11.3995V5.23623Z" fill="#D6F8B8"/>
<circle id="Ellipse 279_2" cx="37.5685" cy="26.1913" r="4.51972" fill="#D6F8B8"/>
<circle id="Ellipse 280_2" cx="23.5986" cy="58.2402" r="4.51972" fill="#D6F8B8"/>
<circle id="Ellipse 281_2" cx="10.4504" cy="39.3396" r="4.51972" fill="#D6F8B8"/>
<path id="Vector 37_2" d="M10.8611 18.3845H19.9005L18.257 20.028L21.1332 24.1369L10.8611 24.5478V18.3845Z" fill="#D6F8B8"/>
<path id="Vector 38_2" d="M23.1877 36.4634H32.2272L30.5836 38.1069L33.4598 42.2157L23.1877 42.6266V36.4634Z" fill="#D6F8B8"/>
<g id="Group 1166_2">
<g id="Group 1164_2">
<g id="Group_19">
<path id="Vector_19" d="M10.5502 41.0219C9.87468 41.0219 9.32788 40.4751 9.32788 39.7995V17.9529C9.32788 17.2773 9.87468 16.7305 10.5502 16.7305C11.2258 16.7305 11.7726 17.2773 11.7726 17.9529V39.7995C11.7726 40.4751 11.2258 41.0219 10.5502 41.0219Z" fill="#D6F8B8"/>
</g>
<g id="Group_20">
<path id="Vector_20" d="M25.6919 29.2588C25.6862 29.2588 25.6813 29.258 25.6756 29.2588H10.5502C9.87468 29.2588 9.32788 28.712 9.32788 28.0364V17.9529C9.32788 17.2773 9.87468 16.7305 10.5502 16.7305H25.6756C26.1703 16.7305 26.616 17.0288 26.8051 17.4851C26.9941 17.9423 26.8898 18.4679 26.5402 18.8175L22.363 22.9946L26.4294 27.0618C26.7244 27.2851 26.9143 27.6388 26.9143 28.0364C26.9143 28.712 26.3675 29.2588 25.6919 29.2588ZM11.7726 26.8141H22.724L19.7692 23.8593C19.5402 23.6303 19.4115 23.319 19.4115 22.9946C19.4115 22.6703 19.5402 22.3598 19.7692 22.13L22.724 19.1752H11.7726V26.8141Z" fill="#D6F8B8"/>
</g>
<g id="Group_21">
<path id="Vector_21" d="M10.5504 46.0629C7.09689 46.0629 4.28711 43.2531 4.28711 39.7995C4.28711 36.346 7.09689 33.5362 10.5504 33.5362C14.004 33.5362 16.8138 36.346 16.8138 39.7995C16.8138 43.2531 14.0048 46.0629 10.5504 46.0629ZM10.5504 35.9809C8.44474 35.9809 6.73181 37.6938 6.73181 39.7995C6.73181 41.9053 8.44474 43.6182 10.5504 43.6182C12.6561 43.6182 14.3691 41.9053 14.3691 39.7995C14.3691 37.6938 12.6561 35.9809 10.5504 35.9809Z" fill="#D6F8B8"/>
</g>
<g id="Group_22">
<path id="Vector_22" d="M23.9948 59.5079C23.3193 59.5079 22.7725 58.9611 22.7725 58.2856V36.4389C22.7725 35.7633 23.3193 35.2165 23.9948 35.2165C24.6704 35.2165 25.2172 35.7633 25.2172 36.4389V58.2856C25.2172 58.9611 24.6704 59.5079 23.9948 59.5079Z" fill="#D6F8B8"/>
</g>
<g id="Group_23">
<path id="Vector_23" d="M39.1357 47.744C39.13 47.744 39.1243 47.7432 39.1194 47.744H23.9948C23.3193 47.744 22.7725 47.1972 22.7725 46.5217V36.4389C22.7725 35.7633 23.3193 35.2165 23.9948 35.2165H39.1194C39.614 35.2165 40.0598 35.5148 40.2488 35.9711C40.4379 36.4283 40.3336 36.9539 39.984 37.3035L35.8068 41.4807L39.8732 45.5479C40.1682 45.7711 40.358 46.1248 40.358 46.5225C40.358 47.1972 39.8112 47.744 39.1357 47.744ZM25.2172 45.2993H36.1686L33.2138 42.3445C32.9848 42.1155 32.8561 41.8042 32.8561 41.4799C32.8561 41.1555 32.9848 40.8451 33.2138 40.6153L36.1686 37.6604H25.2172V45.2993Z" fill="#D6F8B8"/>
</g>
<g id="Group_24">
<path id="Vector_24" d="M23.9945 64.5489C20.541 64.5489 17.7312 61.7391 17.7312 58.2856C17.7312 54.832 20.541 52.0222 23.9945 52.0222C27.4481 52.0222 30.2579 54.832 30.2579 58.2856C30.2579 61.7391 27.4481 64.5489 23.9945 64.5489ZM23.9945 54.467C21.8896 54.467 20.1759 56.1799 20.1759 58.2856C20.1759 60.3905 21.8888 62.1042 23.9945 62.1042C26.1002 62.1042 27.8132 60.3913 27.8132 58.2856C27.8132 56.1807 26.1002 54.467 23.9945 54.467Z" fill="#D6F8B8"/>
</g>
<g id="Group_25">
<path id="Vector_25" d="M37.4389 27.5785C36.7634 27.5785 36.2166 27.0317 36.2166 26.3561V4.50942C36.2166 3.83387 36.7634 3.28707 37.4389 3.28707C38.1145 3.28707 38.6613 3.83387 38.6613 4.50942V26.3561C38.6613 27.0309 38.1136 27.5785 37.4389 27.5785Z" fill="#D6F8B8"/>
</g>
<g id="Group_26">
<path id="Vector_26" d="M52.5798 15.8145C52.5741 15.8145 52.5692 15.8137 52.5635 15.8145H37.4389C36.7634 15.8145 36.2166 15.2678 36.2166 14.5922V4.50942C36.2166 3.83387 36.7634 3.28707 37.4389 3.28707H52.5643C53.0589 3.28707 53.5047 3.58532 53.6938 4.04167C53.8828 4.49801 53.7785 5.02444 53.4289 5.37322L49.2517 9.5504L53.3189 13.6176C53.6139 13.8409 53.8038 14.1945 53.8038 14.5922C53.8021 15.2678 53.2553 15.8145 52.5798 15.8145ZM38.6613 13.3698H49.6127L46.6579 10.415C46.4289 10.186 46.3001 9.87473 46.3001 9.5504C46.3001 9.22607 46.4289 8.91559 46.6579 8.68579L49.6127 5.73096H38.6613V13.3698Z" fill="#D6F8B8"/>
</g>
<g id="Group_27">
<path id="Vector_27" d="M37.4392 32.6194C33.9856 32.6194 31.175 29.8097 31.175 26.3561C31.175 22.9017 33.9848 20.092 37.4392 20.092C40.8936 20.092 43.7033 22.9017 43.7033 26.3561C43.7025 29.8097 40.8928 32.6194 37.4392 32.6194ZM37.4392 22.5367C35.3335 22.5367 33.6198 24.2504 33.6198 26.3561C33.6198 28.4618 35.3335 30.1747 37.4392 30.1747C39.5449 30.1747 41.2586 28.4618 41.2586 26.3561C41.2578 24.2496 39.5449 22.5367 37.4392 22.5367Z" fill="#D6F8B8"/>
</g>
</g>
<g id="Group 1163_2">
<g id="Group_28">
<g id="Vector_28">
<path d="M7.26337 37.7348C6.58781 37.7348 6.04102 37.188 6.04102 36.5125V14.6658C6.04102 13.9902 6.58781 13.4434 7.26337 13.4434C7.93892 13.4434 8.48572 13.9902 8.48572 14.6658V36.5125C8.48572 37.188 7.93892 37.7348 7.26337 37.7348Z" fill="#344054"/>
<path d="M7.26337 37.7348C6.58781 37.7348 6.04102 37.188 6.04102 36.5125V14.6658C6.04102 13.9902 6.58781 13.4434 7.26337 13.4434C7.93892 13.4434 8.48572 13.9902 8.48572 14.6658V36.5125C8.48572 37.188 7.93892 37.7348 7.26337 37.7348Z" stroke="white"/>
</g>
</g>
<g id="Group_29">
<g id="Vector_29">
<path d="M22.4051 25.9717C22.3994 25.9717 22.3945 25.9709 22.3888 25.9717H7.26337C6.58781 25.9717 6.04102 25.4249 6.04102 24.7494V14.6658C6.04102 13.9902 6.58781 13.4434 7.26337 13.4434H22.3888C22.8834 13.4434 23.3292 13.7417 23.5182 14.198C23.7073 14.6552 23.603 15.1808 23.2534 15.5304L19.0762 19.7076L23.1425 23.7747C23.4375 23.998 23.6274 24.3517 23.6274 24.7494C23.6274 25.4249 23.0806 25.9717 22.4051 25.9717ZM8.48572 23.527H19.4372L16.4824 20.5722C16.2534 20.3432 16.1246 20.0319 16.1246 19.7076C16.1246 19.3832 16.2534 19.0728 16.4824 18.843L19.4372 15.8881H8.48572V23.527Z" fill="#344054"/>
<path d="M22.4051 25.9717C22.3994 25.9717 22.3945 25.9709 22.3888 25.9717H7.26337C6.58781 25.9717 6.04102 25.4249 6.04102 24.7494V14.6658C6.04102 13.9902 6.58781 13.4434 7.26337 13.4434H22.3888C22.8834 13.4434 23.3292 13.7417 23.5182 14.198C23.7073 14.6552 23.603 15.1808 23.2534 15.5304L19.0762 19.7076L23.1425 23.7747C23.4375 23.998 23.6274 24.3517 23.6274 24.7494C23.6274 25.4249 23.0806 25.9717 22.4051 25.9717ZM8.48572 23.527H19.4372L16.4824 20.5722C16.2534 20.3432 16.1246 20.0319 16.1246 19.7076C16.1246 19.3832 16.2534 19.0728 16.4824 18.843L19.4372 15.8881H8.48572V23.527Z" stroke="white"/>
</g>
</g>
<g id="Group_30">
<g id="Vector_30">
<path d="M7.26333 42.7758C3.80978 42.7758 1 39.966 1 36.5125C1 33.0589 3.80978 30.2491 7.26333 30.2491C10.7169 30.2491 13.5267 33.0589 13.5267 36.5125C13.5267 39.966 10.7177 42.7758 7.26333 42.7758ZM7.26333 32.6939C5.15763 32.6939 3.4447 34.4068 3.4447 36.5125C3.4447 38.6182 5.15763 40.3311 7.26333 40.3311C9.36904 40.3311 11.082 38.6182 11.082 36.5125C11.082 34.4068 9.36904 32.6939 7.26333 32.6939Z" fill="#344054"/>
<path d="M7.26333 42.7758C3.80978 42.7758 1 39.966 1 36.5125C1 33.0589 3.80978 30.2491 7.26333 30.2491C10.7169 30.2491 13.5267 33.0589 13.5267 36.5125C13.5267 39.966 10.7177 42.7758 7.26333 42.7758ZM7.26333 32.6939C5.15763 32.6939 3.4447 34.4068 3.4447 36.5125C3.4447 38.6182 5.15763 40.3311 7.26333 40.3311C9.36904 40.3311 11.082 38.6182 11.082 36.5125C11.082 34.4068 9.36904 32.6939 7.26333 32.6939Z" stroke="white"/>
</g>
</g>
<g id="Group_31">
<g id="Vector_31">
<path d="M20.7077 56.2209C20.0322 56.2209 19.4854 55.6741 19.4854 54.9985V33.1518C19.4854 32.4763 20.0322 31.9295 20.7077 31.9295C21.3833 31.9295 21.9301 32.4763 21.9301 33.1518V54.9985C21.9301 55.6741 21.3833 56.2209 20.7077 56.2209Z" fill="#344054"/>
<path d="M20.7077 56.2209C20.0322 56.2209 19.4854 55.6741 19.4854 54.9985V33.1518C19.4854 32.4763 20.0322 31.9295 20.7077 31.9295C21.3833 31.9295 21.9301 32.4763 21.9301 33.1518V54.9985C21.9301 55.6741 21.3833 56.2209 20.7077 56.2209Z" stroke="white"/>
</g>
</g>
<g id="Group_32">
<g id="Vector_32">
<path d="M35.8486 44.4569C35.8466 44.4569 35.8447 44.4568 35.8428 44.4568C35.8391 44.4566 35.8355 44.4564 35.8323 44.4569H20.7077C20.0322 44.4569 19.4854 43.9101 19.4854 43.2346V33.1518C19.4854 32.4763 20.0322 31.9295 20.7077 31.9295H35.8323C36.3269 31.9295 36.7727 32.2277 36.9617 32.6841C37.1508 33.1412 37.0465 33.6668 36.6969 34.0164L32.5197 38.1936L36.5861 42.2608C36.8811 42.4841 37.0709 42.8377 37.0709 43.2354C37.0709 43.9101 36.5241 44.4569 35.8486 44.4569ZM21.9301 42.0122H32.8815L29.9267 39.0574C29.6977 38.8284 29.5689 38.5171 29.5689 38.1928C29.5689 37.8685 29.6977 37.558 29.9267 37.3282L32.8815 34.3733H21.9301V42.0122Z" fill="#344054"/>
<path d="M35.8486 44.4569C35.8466 44.4569 35.8447 44.4568 35.8428 44.4568C35.8391 44.4566 35.8355 44.4564 35.8323 44.4569H20.7077C20.0322 44.4569 19.4854 43.9101 19.4854 43.2346V33.1518C19.4854 32.4763 20.0322 31.9295 20.7077 31.9295H35.8323C36.3269 31.9295 36.7727 32.2277 36.9617 32.6841C37.1508 33.1412 37.0465 33.6668 36.6969 34.0164L32.5197 38.1936L36.5861 42.2608C36.8811 42.4841 37.0709 42.8377 37.0709 43.2354C37.0709 43.9101 36.5241 44.4569 35.8486 44.4569ZM21.9301 42.0122H32.8815L29.9267 39.0574C29.6977 38.8284 29.5689 38.5171 29.5689 38.1928C29.5689 37.8685 29.6977 37.558 29.9267 37.3282L32.8815 34.3733H21.9301V42.0122Z" stroke="white"/>
</g>
</g>
<g id="Group_33">
<g id="Vector_33">
<path d="M20.7074 61.2619C17.2539 61.2619 14.4441 58.4521 14.4441 54.9985C14.4441 51.545 17.2539 48.7352 20.7074 48.7352C24.161 48.7352 26.9708 51.545 26.9708 54.9985C26.9708 58.4521 24.161 61.2619 20.7074 61.2619ZM20.7074 51.1799C18.6025 51.1799 16.8888 52.8928 16.8888 54.9985C16.8888 57.1034 18.6017 58.8171 20.7074 58.8171C22.8131 58.8171 24.5261 57.1042 24.5261 54.9985C24.5261 52.8936 22.8131 51.1799 20.7074 51.1799Z" fill="#344054"/>
<path d="M20.7074 61.2619C17.2539 61.2619 14.4441 58.4521 14.4441 54.9985C14.4441 51.545 17.2539 48.7352 20.7074 48.7352C24.161 48.7352 26.9708 51.545 26.9708 54.9985C26.9708 58.4521 24.161 61.2619 20.7074 61.2619ZM20.7074 51.1799C18.6025 51.1799 16.8888 52.8928 16.8888 54.9985C16.8888 57.1034 18.6017 58.8171 20.7074 58.8171C22.8131 58.8171 24.5261 57.1042 24.5261 54.9985C24.5261 52.8936 22.8131 51.1799 20.7074 51.1799Z" stroke="white"/>
</g>
</g>
<g id="Group_34">
<g id="Vector_34">
<path d="M34.1518 24.2914C33.4762 24.2914 32.9294 23.7446 32.9294 23.069V1.22235C32.9294 0.546799 33.4762 0 34.1518 0C34.8273 0 35.3741 0.546799 35.3741 1.22235V23.069C35.3741 23.7438 34.8265 24.2914 34.1518 24.2914Z" fill="#344054"/>
<path d="M34.1518 24.2914C33.4762 24.2914 32.9294 23.7446 32.9294 23.069V1.22235C32.9294 0.546799 33.4762 0 34.1518 0C34.8273 0 35.3741 0.546799 35.3741 1.22235V23.069C35.3741 23.7438 34.8265 24.2914 34.1518 24.2914Z" stroke="white"/>
</g>
</g>
<g id="Group_35">
<g id="Vector_35">
<path d="M49.2927 12.5275C49.2904 12.5275 49.2884 12.5274 49.2863 12.5273C49.283 12.5271 49.2799 12.527 49.2764 12.5275H34.1518C33.4762 12.5275 32.9294 11.9807 32.9294 11.3051V1.22235C32.9294 0.546799 33.4762 0 34.1518 0H49.2772C49.7718 0 50.2176 0.298254 50.4066 0.754599C50.5957 1.21094 50.4914 1.73737 50.1418 2.08615L45.9646 6.26333L50.0318 10.3305C50.3268 10.5538 50.5167 10.9075 50.5167 11.3051C50.515 11.9807 49.9682 12.5275 49.2927 12.5275ZM35.3741 10.0828H46.3256L43.3708 7.12794C43.1418 6.89896 43.013 6.58766 43.013 6.26333C43.013 5.939 43.1418 5.62853 43.3708 5.39872L46.3256 2.44389H35.3741V10.0828Z" fill="#344054"/>
<path d="M49.2927 12.5275C49.2904 12.5275 49.2884 12.5274 49.2863 12.5273C49.283 12.5271 49.2799 12.527 49.2764 12.5275H34.1518C33.4762 12.5275 32.9294 11.9807 32.9294 11.3051V1.22235C32.9294 0.546799 33.4762 0 34.1518 0H49.2772C49.7718 0 50.2176 0.298254 50.4066 0.754599C50.5957 1.21094 50.4914 1.73737 50.1418 2.08615L45.9646 6.26333L50.0318 10.3305C50.3268 10.5538 50.5167 10.9075 50.5167 11.3051C50.515 11.9807 49.9682 12.5275 49.2927 12.5275ZM35.3741 10.0828H46.3256L43.3708 7.12794C43.1418 6.89896 43.013 6.58766 43.013 6.26333C43.013 5.939 43.1418 5.62853 43.3708 5.39872L46.3256 2.44389H35.3741V10.0828Z" stroke="white"/>
</g>
</g>
<g id="Group_36">
<g id="Vector_36">
<path d="M34.1521 29.3324C30.6985 29.3324 27.8879 26.5226 27.8879 23.069C27.8879 19.6147 30.6977 16.8049 34.1521 16.8049C37.6065 16.8049 40.4162 19.6147 40.4162 23.069C40.4154 26.5226 37.6056 29.3324 34.1521 29.3324ZM34.1521 19.2496C32.0464 19.2496 30.3326 20.9633 30.3326 23.069C30.3326 25.1748 32.0464 26.8877 34.1521 26.8877C36.2578 26.8877 37.9715 25.1748 37.9715 23.069C37.9707 20.9625 36.2578 19.2496 34.1521 19.2496Z" fill="#344054"/>
<path d="M34.1521 29.3324C30.6985 29.3324 27.8879 26.5226 27.8879 23.069C27.8879 19.6147 30.6977 16.8049 34.1521 16.8049C37.6065 16.8049 40.4162 19.6147 40.4162 23.069C40.4154 26.5226 37.6056 29.3324 34.1521 29.3324ZM34.1521 19.2496C32.0464 19.2496 30.3326 20.9633 30.3326 23.069C30.3326 25.1748 32.0464 26.8877 34.1521 26.8877C36.2578 26.8877 37.9715 25.1748 37.9715 23.069C37.9707 20.9625 36.2578 19.2496 34.1521 19.2496Z" stroke="white"/>
</g>
</g>
</g>
</g>
</g>
</g>
</svg>
