<svg width="63" height="60" viewBox="0 0 63 60" fill="none" xmlns="http://www.w3.org/2000/svg">
<g id="Group 1177">
<path id="Vector 40" d="M40.4803 5.43144C39.5134 4.46458 30.1403 5.02858 25.5746 5.43144L24.366 11.4743L17.5174 18.7258L11.0717 16.7115L5.43164 31.2144L12.2802 34.0344L14.2945 41.6887L11.0717 48.9401L24.366 57.803L29.2003 51.3573L38.0632 52.163L41.6889 58.6087L55.7889 48.1344L50.9546 42.8973L53.7746 34.0344H55.7889L60.2204 30.0058L56.5946 16.7115L48.5375 17.5172L41.286 12.6829V7.84859C41.4203 7.44573 41.4472 6.3983 40.4803 5.43144Z" fill="#D6F8B8"/>
<g id="Group">
<path id="Vector" d="M24.8548 4.22288C24.5822 4.22383 24.3212 4.33194 24.1284 4.52372C23.9357 4.7155 23.827 4.9754 23.826 5.24663V12.5797C21.5255 13.6881 19.4536 15.188 17.6839 17.0235L10.6806 14.7561C10.4209 14.6736 10.1389 14.6966 9.8962 14.8202C9.6535 14.9438 9.4698 15.158 9.38515 15.4159L4.27179 31.0755C4.18886 31.3339 4.21212 31.6145 4.33633 31.8561C4.46054 32.0976 4.67561 32.2804 4.93478 32.3646L11.9533 34.6396C12.299 37.1529 13.0853 39.5679 14.2851 41.8059L9.95669 47.7436C9.87571 47.8525 9.81726 47.9762 9.78451 48.1077C9.75177 48.2392 9.74541 48.3759 9.76594 48.5098C9.78646 48.6437 9.83342 48.7722 9.90406 48.888C9.9747 49.0038 10.0675 49.1045 10.1774 49.1844L13.6676 51.7021C13.7775 51.7823 13.9024 51.84 14.0349 51.872C14.1673 51.904 14.3046 51.9096 14.4392 51.8885C14.5738 51.8673 14.703 51.8198 14.819 51.7488C14.9351 51.6778 15.0358 51.5846 15.1155 51.4746C15.2759 51.2543 15.342 50.9796 15.2991 50.7109C15.2563 50.4423 15.108 50.2014 14.8869 50.0414L12.2274 48.1228L16.251 42.6173C16.3685 42.4556 16.4361 42.2634 16.4455 42.0641C16.455 41.8648 16.4061 41.667 16.3046 41.4949C14.9126 39.108 14.0525 36.453 13.7746 33.7069C13.7541 33.5088 13.6761 33.3209 13.5502 33.1661C13.4244 33.0113 13.2562 32.8962 13.0659 32.8348L6.55033 30.7266L11.0236 17.0235L17.5239 19.1241C17.714 19.1864 17.9181 19.1923 18.1116 19.1412C18.3051 19.09 18.4796 18.9841 18.6136 18.8361C20.4625 16.7777 22.736 15.1349 25.2739 14.0207C25.4574 13.9405 25.6134 13.8088 25.723 13.6418C25.8326 13.4749 25.8911 13.2798 25.8912 13.0803V6.27808H30.8445C30.9807 6.27862 31.1157 6.25223 31.2417 6.20059C31.3677 6.14895 31.4821 6.07299 31.5784 5.97712C31.6748 5.88124 31.7511 5.7674 31.803 5.64203C31.8549 5.51665 31.8814 5.38234 31.8809 5.24675C31.8804 5.1118 31.8532 4.97821 31.8009 4.85372C31.7485 4.72922 31.6721 4.61619 31.5758 4.52112C31.4796 4.42605 31.3653 4.35082 31.2398 4.29966C31.1143 4.24849 30.9801 4.22246 30.8445 4.223L24.8548 4.22288ZM35.0967 4.22288C34.8242 4.2238 34.5631 4.33193 34.3704 4.52372C34.1777 4.71551 34.0689 4.97539 34.068 5.24663C34.0674 5.38158 34.0937 5.51525 34.1451 5.64013C34.1965 5.76501 34.272 5.87861 34.3675 5.97439C34.4631 6.07017 34.5768 6.14625 34.7019 6.19834C34.827 6.25042 34.9611 6.2775 35.0967 6.27796H40.3625V13.065C40.3626 13.2645 40.421 13.4596 40.5306 13.6266C40.6402 13.7935 40.7963 13.9252 40.9798 14.0054C43.522 15.1219 45.7896 16.7723 47.6401 18.836C47.7741 18.9839 47.9484 19.0899 48.1418 19.1411C48.3353 19.1922 48.5397 19.1863 48.7298 19.124L55.2225 17.0234L59.6957 30.7341L53.1878 32.8347C52.9964 32.8966 52.8272 33.0129 52.7013 33.1692C52.5754 33.3255 52.4982 33.5149 52.4791 33.7143C52.2009 36.4597 51.3332 39.1086 49.9415 41.4948C49.841 41.6676 49.7933 41.8657 49.8041 42.065C49.8149 42.2643 49.8838 42.4562 50.0024 42.6172L54.0184 48.1227L42.3055 56.5932L38.2819 51.0802C38.1645 50.919 38.0027 50.7953 37.8161 50.724C37.6294 50.6526 37.4258 50.6367 37.2302 50.6782C35.8835 50.9702 34.5087 51.1222 33.1306 51.1257C31.7502 51.123 30.3724 50.9712 29.0232 50.6782C28.8265 50.6351 28.6213 50.6502 28.4331 50.7216C28.2449 50.793 28.0816 50.9176 27.9637 51.0802L23.9477 56.5932L19.6347 53.4765C19.4133 53.3169 19.1372 53.2512 18.8672 53.2939C18.5972 53.3366 18.3551 53.4841 18.1942 53.7041C18.0338 53.9244 17.968 54.1991 18.0108 54.4678C18.0537 54.7365 18.202 54.9773 18.4231 55.1374L23.5591 58.8608C23.6689 58.941 23.7938 58.9987 23.9263 59.0307C24.0587 59.0627 24.196 59.0682 24.3306 59.047C24.4652 59.0259 24.5944 58.9785 24.7105 58.9075C24.8265 58.8364 24.9275 58.7433 25.0072 58.6333L29.2821 52.7638C30.5512 52.996 31.8314 53.1708 33.123 53.1733C33.1256 53.1733 33.128 53.1733 33.1306 53.1733C34.4196 53.1705 35.6971 52.9951 36.9638 52.7638L41.2465 58.6333C41.4074 58.8532 41.6495 59.0007 41.9195 59.0434C42.1895 59.086 42.4653 59.0203 42.6868 58.8608L56.0684 49.1844C56.1789 49.1051 56.2725 49.0048 56.3439 48.8893C56.4153 48.7738 56.4631 48.6454 56.4844 48.5114C56.5056 48.3775 56.4999 48.2407 56.4677 48.1089C56.4356 47.9771 56.3778 47.853 56.2972 47.7436L51.9609 41.8134C53.1631 39.5738 53.9539 37.1554 54.3004 34.6396L61.3191 32.3722C61.4483 32.3305 61.5678 32.2639 61.6711 32.1761C61.7744 32.0883 61.8593 31.9811 61.9209 31.8607C61.9825 31.7402 62.0195 31.6089 62.03 31.4742C62.0405 31.3394 62.0241 31.2039 61.9819 31.0755L56.8685 15.4159C56.8266 15.2873 56.7598 15.1682 56.6716 15.0654C56.5834 14.9626 56.4757 14.8782 56.3546 14.8169C56.2336 14.7556 56.1016 14.7187 55.9662 14.7083C55.8308 14.6978 55.6947 14.7141 55.5656 14.7561L48.5698 17.016C46.8017 15.1809 44.7261 13.6811 42.4277 12.5721V5.24663C42.4272 5.11168 42.4 4.97808 42.3476 4.8536C42.2953 4.72911 42.2188 4.61618 42.1226 4.52112C42.0264 4.42605 41.9123 4.35071 41.7868 4.29954C41.6613 4.24837 41.5271 4.22236 41.3915 4.22288H35.0967ZM33.123 20.6332C30.6497 20.6334 28.3522 21.4344 26.5008 22.7945C26.3914 22.8749 26.299 22.976 26.2291 23.0921C26.1591 23.2082 26.1129 23.3368 26.0931 23.4707C26.0733 23.6046 26.0803 23.7411 26.1136 23.8724C26.1469 24.0036 26.206 24.1269 26.2874 24.2353C26.4506 24.4529 26.6936 24.5974 26.9635 24.6372C27.2334 24.677 27.5082 24.6088 27.7277 24.4476C29.2377 23.3383 31.0984 22.6885 33.123 22.6883C38.1584 22.6887 42.2215 26.7294 42.2219 31.7428C42.2228 32.014 42.3316 32.2739 42.5243 32.4657C42.7171 32.6575 42.9781 32.7656 43.2507 32.7665C43.3863 32.7671 43.5207 32.741 43.6462 32.6899C43.7717 32.6387 43.8858 32.5634 43.982 32.4683C44.0782 32.3732 44.1547 32.2603 44.207 32.1358C44.2594 32.0113 44.2866 31.8777 44.2871 31.7428C44.2866 25.6195 39.2746 20.6337 33.123 20.6332ZM23.9098 25.9795C23.7788 26.0181 23.6567 26.0822 23.5507 26.1681C23.4448 26.254 23.357 26.36 23.2926 26.48C22.4449 28.0465 21.9667 29.8426 21.9666 31.7428C21.9671 37.866 26.9715 42.8519 33.123 42.8524C37.2653 42.8521 40.8933 40.5954 42.8163 37.2483C42.8839 37.1313 42.9277 37.0021 42.9451 36.8683C42.9626 36.7344 42.9531 36.5986 42.9177 36.4683C42.8823 36.338 42.8215 36.2159 42.7387 36.109C42.6558 36.0021 42.5527 35.9125 42.435 35.8454C42.317 35.7784 42.1869 35.7353 42.0521 35.7185C41.9173 35.7017 41.7804 35.7116 41.6494 35.7475C41.5184 35.7834 41.396 35.8447 41.2889 35.9278C41.1817 36.011 41.0921 36.1144 41.0252 36.2321C39.4582 38.9596 36.5135 40.797 33.1228 40.7973C28.0874 40.7969 24.0319 36.7562 24.0315 31.7428C24.0316 30.1872 24.4229 28.727 25.1136 27.4506C25.2423 27.2111 25.2705 26.9307 25.192 26.6706C25.1134 26.4106 24.9345 26.1921 24.6945 26.0629C24.4543 25.9327 24.1723 25.9027 23.9098 25.9795ZM33.123 28.262C31.1243 28.2629 29.4813 29.8978 29.4804 31.8869C29.4794 33.8773 31.123 35.5108 33.123 35.5117C35.123 35.5108 36.7666 33.8772 36.7656 31.8869C36.7648 29.8978 35.1217 28.2629 33.123 28.262ZM33.123 30.3171C34.0061 30.3175 34.7001 31.0071 34.7005 31.8869C34.7009 32.7673 34.0068 33.4562 33.123 33.4566C32.2393 33.4562 31.5451 32.7673 31.5456 31.8869C31.546 31.0071 32.24 30.3175 33.123 30.3171Z" fill="#D6F8B8" stroke="#D6F8B8" stroke-width="0.805716"/>
<path id="Vector_2" d="M21.6319 1.00001C21.3593 1.00096 21.0983 1.10907 20.9055 1.30085C20.7128 1.49263 20.6041 1.75253 20.6031 2.02376V9.35684C18.3026 10.4652 16.2307 11.9652 14.461 13.8007L7.45774 11.5333C7.19802 11.4507 6.91601 11.4738 6.6733 11.5974C6.4306 11.721 6.2469 11.9351 6.16225 12.193L1.04889 27.8526C0.965956 28.111 0.989223 28.3917 1.11343 28.6332C1.23764 28.8747 1.45271 29.0575 1.71188 29.1417L8.73036 31.4167C9.07605 33.93 9.86239 36.345 11.0622 38.583L6.73379 44.5207C6.65281 44.6296 6.59435 44.7534 6.56161 44.8849C6.52887 45.0163 6.52251 45.153 6.54304 45.2869C6.56356 45.4208 6.61052 45.5493 6.68116 45.6651C6.7518 45.7809 6.84463 45.8817 6.95455 45.9616L10.4447 48.4792C10.5546 48.5594 10.6795 48.6172 10.812 48.6492C10.9444 48.6811 11.0817 48.6868 11.2163 48.6656C11.3509 48.6445 11.4801 48.597 11.5961 48.5259C11.7122 48.4549 11.8129 48.3617 11.8926 48.2517C12.053 48.0314 12.1191 47.7568 12.0762 47.4881C12.0334 47.2194 11.8851 46.9786 11.664 46.8185L9.00446 44.8999L13.0281 39.3944C13.1456 39.2327 13.2132 39.0405 13.2226 38.8412C13.2321 38.6419 13.1832 38.4441 13.0817 38.2721C11.6897 35.8851 10.8296 33.2302 10.5517 30.484C10.5312 30.2859 10.4532 30.098 10.3273 29.9432C10.2015 29.7884 10.0333 29.6733 9.84296 29.6119L3.32743 27.5037L7.80066 13.8007L14.301 15.9013C14.4911 15.9635 14.6952 15.9695 14.8887 15.9183C15.0822 15.8672 15.2567 15.7612 15.3907 15.6132C17.2396 13.5548 19.5131 11.9121 22.051 10.7978C22.2345 10.7176 22.3905 10.586 22.5001 10.419C22.6097 10.252 22.6682 10.0569 22.6683 9.85746V3.05521H27.6216C27.7578 3.05575 27.8928 3.02936 28.0188 2.97772C28.1448 2.92608 28.2592 2.85012 28.3555 2.75425C28.4519 2.65837 28.5282 2.54453 28.5801 2.41916C28.632 2.29378 28.6585 2.15947 28.658 2.02388C28.6575 1.88893 28.6303 1.75534 28.578 1.63085C28.5256 1.50635 28.4492 1.39332 28.3529 1.29825C28.2567 1.20318 28.1424 1.12795 28.0169 1.07679C27.8914 1.02562 27.7572 0.999591 27.6216 1.00013L21.6319 1.00001ZM31.8738 1.00001C31.6013 1.00093 31.3402 1.10906 31.1475 1.30085C30.9548 1.49264 30.846 1.75252 30.8451 2.02376C30.8445 2.15871 30.8708 2.29238 30.9222 2.41726C30.9736 2.54214 31.0491 2.65574 31.1446 2.75152C31.2402 2.8473 31.3539 2.92338 31.479 2.97547C31.6041 3.02755 31.7382 3.05463 31.8738 3.05509H37.1396V9.84217C37.1397 10.0416 37.1981 10.2367 37.3077 10.4037C37.4173 10.5707 37.5734 10.7023 37.7569 10.7825C40.2991 11.899 42.5667 13.5494 44.4172 15.6131C44.5512 15.7611 44.7255 15.867 44.9189 15.9182C45.1124 15.9693 45.3168 15.9634 45.5069 15.9011L51.9996 13.8006L56.4728 27.5112L49.9649 29.6118C49.7735 29.6737 49.6043 29.79 49.4784 29.9463C49.3525 30.1026 49.2753 30.292 49.2562 30.4915C48.978 33.2369 48.1103 35.8857 46.7186 38.272C46.6181 38.4447 46.5704 38.6428 46.5812 38.8421C46.592 39.0414 46.6609 39.2333 46.7795 39.3943L50.7955 44.8998L39.0826 53.3704L35.059 47.8573C34.9416 47.6961 34.7798 47.5725 34.5932 47.5011C34.4065 47.4298 34.2029 47.4138 34.0073 47.4554C32.6606 47.7474 31.2858 47.8993 29.9077 47.9028C28.5273 47.9002 27.1495 47.7483 25.8003 47.4554C25.6036 47.4122 25.3984 47.4273 25.2102 47.4987C25.022 47.5702 24.8587 47.6948 24.7408 47.8573L20.7248 53.3704L16.4118 50.2536C16.1904 50.094 15.9143 50.0284 15.6443 50.071C15.3743 50.1137 15.1322 50.2613 14.9713 50.4812C14.8109 50.7016 14.7451 50.9762 14.7879 51.2449C14.8308 51.5136 14.9791 51.7544 15.2002 51.9145L20.3362 55.6379C20.446 55.7181 20.5709 55.7758 20.7034 55.8078C20.8358 55.8398 20.9731 55.8453 21.1077 55.8242C21.2423 55.803 21.3715 55.7556 21.4876 55.6846C21.6036 55.6136 21.7046 55.5204 21.7843 55.4104L26.0592 49.5409C27.3283 49.7731 28.6085 49.9479 29.9001 49.9504C29.9027 49.9504 29.9051 49.9504 29.9077 49.9504C31.1967 49.9477 32.4742 49.7722 33.7409 49.5409L38.0236 55.4104C38.1845 55.6304 38.4266 55.7778 38.6966 55.8205C38.9666 55.8632 39.2424 55.7975 39.4639 55.6379L52.8455 45.9616C52.956 45.8823 53.0496 45.7819 53.121 45.6664C53.1924 45.5509 53.2402 45.4225 53.2615 45.2886C53.2827 45.1546 53.277 45.0178 53.2448 44.886C53.2127 44.7543 53.1549 44.6301 53.0743 44.5207L48.738 38.5906C49.9402 36.3509 50.731 33.9325 51.0775 31.4167L58.0962 29.1493C58.2254 29.1077 58.3449 29.041 58.4482 28.9532C58.5515 28.8655 58.6364 28.7583 58.698 28.6378C58.7596 28.5174 58.7966 28.386 58.8071 28.2513C58.8176 28.1165 58.8012 27.981 58.759 27.8526L53.6456 12.193C53.6037 12.0644 53.5369 11.9453 53.4487 11.8425C53.3605 11.7397 53.2528 11.6553 53.1317 11.594C53.0107 11.5328 52.8787 11.4958 52.7433 11.4854C52.6079 11.475 52.4718 11.4912 52.3427 11.5333L45.3469 13.7931C43.5788 11.9581 41.5032 10.4583 39.2048 9.34925V2.02376C39.2043 1.88881 39.1771 1.75521 39.1247 1.63073C39.0724 1.50624 38.9959 1.39331 38.8997 1.29825C38.8035 1.20318 38.6894 1.12784 38.5639 1.07667C38.4384 1.0255 38.3042 0.999492 38.1686 1.00001H31.8738ZM29.9001 17.4103C27.4268 17.4106 25.1293 18.2115 23.2779 19.5716C23.1685 19.652 23.0761 19.7532 23.0062 19.8692C22.9362 19.9853 22.89 20.1139 22.8702 20.2478C22.8504 20.3817 22.8574 20.5183 22.8907 20.6495C22.924 20.7807 22.9831 20.904 23.0645 21.0124C23.2277 21.23 23.4707 21.3745 23.7406 21.4143C24.0105 21.4541 24.2853 21.3859 24.5048 21.2248C26.0148 20.1154 27.8755 19.4656 29.9001 19.4654C34.9355 19.4658 38.9986 23.5065 38.999 28.5199C38.9999 28.7911 39.1087 29.051 39.3014 29.2428C39.4942 29.4346 39.7552 29.5427 40.0278 29.5437C40.1634 29.5442 40.2978 29.5182 40.4233 29.467C40.5488 29.4158 40.6629 29.3405 40.7591 29.2454C40.8553 29.1504 40.9318 29.0374 40.9841 28.9129C41.0365 28.7885 41.0637 28.6549 41.0642 28.5199C41.0637 22.3967 36.0517 17.4108 29.9001 17.4103ZM20.6869 22.7566C20.5559 22.7952 20.4338 22.8593 20.3278 22.9452C20.2219 23.0311 20.1341 23.1372 20.0697 23.2571C19.222 24.8236 18.7438 26.6198 18.7437 28.5199C18.7442 34.6432 23.7486 39.629 29.9001 39.6295C34.0424 39.6292 37.6704 37.3725 39.5934 34.0254C39.661 33.9084 39.7048 33.7793 39.7222 33.6454C39.7397 33.5116 39.7302 33.3757 39.6948 33.2454C39.6594 33.1151 39.5986 32.993 39.5158 32.8861C39.4329 32.7793 39.3298 32.6897 39.2121 32.6225C39.0941 32.5555 38.964 32.5124 38.8292 32.4956C38.6944 32.4788 38.5575 32.4887 38.4265 32.5246C38.2955 32.5606 38.1731 32.6218 38.066 32.705C37.9588 32.7881 37.8692 32.8916 37.8023 33.0092C36.2353 35.7367 33.2906 37.5742 29.8999 37.5744C24.8645 37.574 20.809 33.5333 20.8086 28.5199C20.8087 26.9643 21.2 25.5042 21.8907 24.2277C22.0194 23.9883 22.0476 23.7078 21.9691 23.4477C21.8905 23.1877 21.7116 22.9692 21.4716 22.84C21.2314 22.7098 20.9493 22.6798 20.6869 22.7566ZM29.9001 25.0392C27.9014 25.04 26.2584 26.6749 26.2575 28.664C26.2565 30.6544 27.9001 32.288 29.9001 32.2888C31.9001 32.2879 33.5437 30.6544 33.5427 28.664C33.5419 26.6749 31.8988 25.0401 29.9001 25.0392ZM29.9001 27.0942C30.7832 27.0947 31.4772 27.7843 31.4776 28.664C31.478 29.5444 30.7839 30.2333 29.9001 30.2337C29.0164 30.2334 28.3222 29.5444 28.3227 28.664C28.3231 27.7843 29.0171 27.0946 29.9001 27.0942Z" fill="#344054" stroke="#344054" stroke-width="0.805716"/>
</g>
</g>
</svg>
