<svg width="71" height="59" viewBox="0 0 71 59" fill="none" xmlns="http://www.w3.org/2000/svg">
<g id="Group 1176">
<path id="Vector 43" d="M35.9988 48.3538V41.1696H62.0416L68.7768 41.6186L69.6748 43.8637L67.8788 48.3538H35.9988Z" fill="#D6F8B8"/>
<g id="feedback">
<path id="Vector" d="M23.3705 58.5936C20.627 58.6582 17.9313 57.8684 15.6564 56.3334C13.3816 54.7985 11.6401 52.5943 10.6731 50.026H7.69505C6.38834 50.0232 5.1361 49.5022 4.2131 48.5772C3.2901 47.6522 2.77173 46.3989 2.77173 45.0921C2.77173 43.7854 3.2901 42.5321 4.2131 41.6071C5.1361 40.6821 6.38834 40.161 7.69505 40.1582H10.6642C11.6311 37.5884 13.3734 35.3829 15.6497 33.8475C17.9259 32.312 20.6234 31.5225 23.3683 31.5884C26.113 31.5226 28.8103 32.3121 31.0864 33.8476C33.3624 35.3831 35.1045 37.5885 36.0712 40.1582H66.0766C67.3833 40.161 68.6355 40.6821 69.5585 41.6071C70.4815 42.5321 70.9999 43.7854 70.9999 45.0921C70.9999 46.3989 70.4815 47.6522 69.5585 48.5772C68.6355 49.5022 67.3833 50.0232 66.0766 50.026H36.048C35.0843 52.5924 33.3464 54.7957 31.075 56.3307C28.8037 57.8657 26.1112 58.6565 23.3705 58.5936ZM12.0309 45.1818C12.0225 46.6642 12.3116 48.1332 12.8809 49.5018C13.4503 50.8705 14.2885 52.111 15.3458 53.15C16.403 54.1891 17.658 55.0054 19.0364 55.5509C20.4148 56.0963 21.8886 56.3597 23.3705 56.3254C38.287 56.1627 38.4141 34.0363 23.3681 33.8566C21.871 33.8228 20.3826 34.0926 18.9927 34.6496C17.6027 35.2067 16.3399 36.0394 15.2805 37.0977C14.2211 38.156 13.387 39.4179 12.8285 40.8073C12.27 42.1967 11.9987 43.6848 12.0309 45.1818ZM36.718 47.7579H66.0766C66.7813 47.7543 67.4559 47.4719 67.9529 46.9724C68.4499 46.4728 68.7289 45.7968 68.7289 45.0921C68.7289 44.3875 68.4499 43.7114 67.9529 43.2119C67.4559 42.7124 66.7813 42.43 66.0766 42.4264H36.7202C37.0623 44.1872 37.0615 45.9974 36.718 47.7579ZM5.28957 46.2096C6.05688 48.0956 8.37185 47.7528 10.0164 47.7579C9.91625 47.2462 9.84525 46.7293 9.80375 46.2096H5.28957ZM5.29844 43.9414H9.80475C9.84623 43.4329 9.91611 42.9271 10.0141 42.4263C8.38357 42.4335 6.0728 42.0894 5.29844 43.9414ZM28.444 51.7781C28.1484 51.7776 27.8647 51.6618 27.6531 51.4554C27.4415 51.249 27.3188 50.9683 27.311 50.6728C27.329 50.1519 27.2391 49.6329 27.0472 49.1483C26.8552 48.6638 26.5652 48.2241 26.1953 47.8569C25.8255 47.4896 25.3838 47.2027 24.8979 47.0142C24.412 46.8256 23.8924 46.7395 23.3716 46.7611C22.8508 46.7393 22.3311 46.8253 21.8452 47.0138C21.3592 47.2023 20.9174 47.4892 20.5475 47.8565C20.1776 48.2238 19.8876 48.6635 19.6957 49.1482C19.5038 49.6328 19.4141 50.1519 19.4323 50.6728C19.418 50.969 19.2884 51.2478 19.0712 51.4496C18.854 51.6514 18.5664 51.7602 18.27 51.7527C17.9736 51.7451 17.6919 51.6219 17.4852 51.4093C17.2786 51.1967 17.1633 50.9117 17.1641 50.6152C17.2116 49.0005 17.8865 47.4678 19.0454 46.3425C20.2044 45.2171 21.7562 44.5877 23.3716 44.5877C24.987 44.5877 26.5389 45.2171 27.6978 46.3425C28.8568 47.4678 29.5316 49.0005 29.5791 50.6152C29.5828 50.7666 29.5562 50.9172 29.5009 51.0581C29.4455 51.1991 29.3625 51.3275 29.2567 51.4359C29.1509 51.5443 29.0245 51.6304 28.8849 51.6892C28.7453 51.7479 28.5954 51.7781 28.444 51.7781ZM27.3232 42.5371C26.9246 42.5472 26.528 42.477 26.1572 42.3305C25.7863 42.1841 25.4487 41.9645 25.1645 41.6849C24.8803 41.4052 24.6553 41.0712 24.5029 40.7028C24.3506 40.3343 24.2739 39.939 24.2776 39.5403C24.2758 39.2395 24.3936 38.9503 24.605 38.7364C24.8164 38.5225 25.1042 38.4013 25.405 38.3995C25.7058 38.3978 25.9949 38.5156 26.2088 38.727C26.4228 38.9384 26.5439 39.2262 26.5457 39.527C26.5505 39.73 26.6345 39.9231 26.7798 40.065C26.9251 40.2069 27.1201 40.2863 27.3232 40.2863C27.5262 40.2863 27.7213 40.2069 27.8666 40.065C28.0118 39.9231 28.0958 39.73 28.1006 39.527C28.1015 39.378 28.1317 39.2307 28.1895 39.0935C28.2473 38.9562 28.3316 38.8317 28.4375 38.727C28.5434 38.6223 28.6689 38.5395 28.8068 38.4833C28.9448 38.4271 29.0924 38.3986 29.2413 38.3995C29.3903 38.4004 29.5376 38.4306 29.6748 38.4884C29.8121 38.5462 29.9366 38.6304 30.0413 38.7364C30.146 38.8423 30.2288 38.9678 30.285 39.1057C30.3412 39.2436 30.3696 39.3913 30.3688 39.5402C30.3725 39.9389 30.2959 40.3344 30.1436 40.7028C29.9912 41.0713 29.7663 41.4054 29.482 41.6851C29.1978 41.9647 28.8602 42.1843 28.4893 42.3307C28.1184 42.4771 27.7218 42.5473 27.3232 42.5371ZM19.4201 42.5371C19.0215 42.5472 18.625 42.477 18.2541 42.3305C17.8832 42.1841 17.5456 41.9645 17.2614 41.6849C16.9772 41.4052 16.7522 41.0712 16.5999 40.7028C16.4475 40.3343 16.3708 39.939 16.3745 39.5403C16.3727 39.2395 16.4905 38.9503 16.7019 38.7364C16.9134 38.5225 17.2011 38.4013 17.5019 38.3995C17.8027 38.3978 18.0918 38.5156 18.3058 38.727C18.5197 38.9384 18.6409 39.2262 18.6426 39.527C18.6473 39.7299 18.7312 39.923 18.8764 40.0649C19.0216 40.2068 19.2165 40.2863 19.4195 40.2863C19.6226 40.2863 19.8175 40.2068 19.9627 40.0649C20.1079 39.923 20.1918 39.7299 20.1964 39.527C20.1982 39.2262 20.3194 38.9384 20.5333 38.727C20.7472 38.5156 21.0364 38.3978 21.3371 38.3995C21.6379 38.4013 21.9257 38.5224 22.1371 38.7364C22.3486 38.9503 22.4664 39.2394 22.4646 39.5402C22.4684 39.9389 22.3918 40.3342 22.2396 40.7026C22.0873 41.0711 21.8624 41.4051 21.5783 41.6847C21.2942 41.9644 20.9567 42.184 20.5859 42.3305C20.2151 42.4769 19.8186 42.5472 19.4201 42.5371ZM49.3656 29.1165C46.6217 29.1806 43.9256 28.3903 41.6504 26.855C39.3753 25.3197 37.6335 23.1153 36.666 20.5467H7.69505C6.38834 20.5439 5.1361 20.0229 4.2131 19.0979C3.2901 18.1729 2.77173 16.9195 2.77173 15.6128C2.77173 14.3061 3.2901 13.0528 4.2131 12.1278C5.1361 11.2028 6.38834 10.6817 7.69505 10.6789H36.6726C37.6365 8.11018 39.3759 5.90506 41.6496 4.36946C43.9232 2.83386 46.6184 2.0439 49.3613 2.10917C52.1058 2.04361 54.8028 2.83326 57.0786 4.36873C59.3545 5.90419 61.0964 8.10944 62.0631 10.679H66.0767C67.3834 10.6818 68.6356 11.2028 69.5586 12.1278C70.4816 13.0528 71 14.3061 71 15.6128C71 16.9196 70.4816 18.1729 69.5586 19.0979C68.6356 20.0229 67.3834 20.5439 66.0767 20.5467H62.0564C61.0904 23.1145 59.3502 25.3186 57.0766 26.8539C54.803 28.3892 52.1084 29.1799 49.3656 29.1165ZM38.0205 15.6804C38.054 18.6725 39.2687 21.5301 41.3999 23.6305C43.5312 25.7309 46.4062 26.9038 49.3985 26.8936C52.3907 26.8834 55.2577 25.6909 57.3746 23.5761C59.4915 21.4612 60.6867 18.5954 60.6997 15.6031C60.6663 12.611 59.4516 9.75339 57.3203 7.653C55.1891 5.55262 52.314 4.37973 49.3218 4.38993C46.3295 4.40013 43.4625 5.59259 41.3456 7.70745C39.2288 9.82231 38.0336 12.6881 38.0205 15.6804ZM62.7099 18.2786H66.0767C66.7813 18.275 67.4559 17.9926 67.9529 17.4931C68.45 16.9935 68.729 16.3175 68.729 15.6128C68.729 14.9082 68.45 14.2322 67.9529 13.7326C67.4559 13.2331 66.7813 12.9507 66.0767 12.9471H62.7109C63.0507 14.7081 63.0504 16.5178 62.7099 18.2786ZM5.29179 16.7502C5.50621 17.2067 5.84601 17.5927 6.27153 17.8633C6.69706 18.1339 7.19077 18.278 7.69505 18.2786H36.0115C35.9126 17.7735 35.8424 17.2632 35.801 16.7502H5.29179ZM5.2951 14.4821H35.801C35.8414 13.9669 35.9113 13.4544 36.0104 12.9471H7.69505C7.19057 12.9488 6.69699 13.094 6.272 13.3658C5.84701 13.6376 5.50818 14.0248 5.2951 14.4821ZM49.3635 24.4872C48.3261 24.5094 47.2947 24.3232 46.3306 23.9396C45.3664 23.5559 44.4891 22.9827 43.7506 22.2537C43.012 21.5248 42.4273 20.655 42.0311 19.696C41.6349 18.737 41.4352 17.7081 41.4438 16.6705C41.4411 16.5195 41.4684 16.3694 41.5241 16.229C41.5798 16.0886 41.6628 15.9606 41.7683 15.8525C41.8737 15.7443 41.9996 15.6582 42.1385 15.599C42.2775 15.5398 42.4269 15.5087 42.5779 15.5076H56.1502C56.3013 15.5087 56.4507 15.5396 56.5897 15.5988C56.7287 15.658 56.8546 15.7441 56.9601 15.8523C57.0656 15.9604 57.1485 16.0885 57.2042 16.2289C57.2598 16.3694 57.2871 16.5195 57.2843 16.6705C57.2927 17.7082 57.0928 18.737 56.6964 19.696C56.3 20.655 55.7152 21.5247 54.9766 22.2536C54.238 22.9825 53.3607 23.5557 52.3965 23.9394C51.4323 24.3231 50.401 24.5093 49.3635 24.4872ZM43.8327 17.7757C44.1049 19.0408 44.8024 20.1744 45.809 20.9875C46.8157 21.8007 48.0706 22.2442 49.3646 22.2442C50.6587 22.2442 51.9136 21.8007 52.9203 20.9875C53.9269 20.1744 54.6244 19.0408 54.8966 17.7757H43.8327ZM55.3551 12.9493C55.0577 12.9493 54.7723 12.8325 54.5602 12.6241C54.3481 12.4158 54.2263 12.1324 54.221 11.8351C54.2178 11.62 54.1301 11.4148 53.9768 11.2639C53.8236 11.1129 53.6171 11.0283 53.402 11.0283C53.1869 11.0283 52.9804 11.1129 52.8272 11.2639C52.6739 11.4148 52.5862 11.62 52.583 11.8351C52.5712 12.1315 52.4439 12.4114 52.2283 12.615C52.0127 12.8186 51.7259 12.9296 51.4294 12.9244C51.1329 12.9192 50.8502 12.7981 50.6419 12.587C50.4336 12.376 50.3162 12.0917 50.3149 11.7952C50.3413 10.9941 50.6781 10.2346 51.2542 9.67719C51.8302 9.11982 52.6004 8.80821 53.402 8.80821C54.2036 8.80821 54.9738 9.11982 55.5498 9.67719C56.1259 10.2346 56.4627 10.9941 56.4891 11.7952C56.4919 11.9458 56.4645 12.0955 56.4087 12.2355C56.353 12.3754 56.2698 12.5028 56.1642 12.6103C56.0586 12.7177 55.9327 12.8031 55.7937 12.8613C55.6548 12.9195 55.5057 12.9494 55.3551 12.9493ZM47.2782 12.9493C46.9809 12.9493 46.6954 12.8325 46.4833 12.6241C46.2712 12.4158 46.1494 12.1324 46.1441 11.8351C46.1447 11.7272 46.1239 11.6203 46.083 11.5204C46.0421 11.4205 45.9819 11.3297 45.9058 11.2532C45.8297 11.1767 45.7392 11.116 45.6395 11.0746C45.5399 11.0332 45.433 11.0118 45.3251 11.0118C45.2172 11.0118 45.1103 11.0332 45.0107 11.0746C44.9111 11.116 44.8206 11.1767 44.7445 11.2532C44.6684 11.3297 44.6081 11.4205 44.5672 11.5204C44.5263 11.6203 44.5056 11.7272 44.5061 11.8351C44.4927 12.1332 44.3656 12.4148 44.1509 12.622C43.9363 12.8292 43.6504 12.9464 43.3521 12.9493C43.2032 12.9468 43.0562 12.9149 42.9195 12.8555C42.7829 12.7962 42.6593 12.7104 42.5558 12.6033C42.4524 12.4961 42.371 12.3696 42.3165 12.2309C42.262 12.0923 42.2353 11.9443 42.238 11.7953C42.2645 10.9942 42.6013 10.2348 43.1774 9.67752C43.7535 9.12021 44.5236 8.80864 45.3251 8.80864C46.1266 8.80864 46.8968 9.12021 47.4728 9.67752C48.0489 10.2348 48.3857 10.9942 48.4123 11.7953C48.415 11.9459 48.3876 12.0956 48.3318 12.2355C48.276 12.3755 48.1929 12.5029 48.0873 12.6103C47.9817 12.7178 47.8557 12.8031 47.7168 12.8613C47.5778 12.9195 47.4288 12.9494 47.2782 12.9493Z" fill="#D6F8B8"/>
</g>
<g id="Group 1175">
<path id="Vector 41" d="M36.4478 12.4327L43.632 4.79947L46.3261 3.00342L54.4083 3.45243L61.5925 11.5347L69.2258 12.4327L70.1238 16.0248L67.8787 18.7189C66.0827 18.7189 62.3109 18.8087 61.5925 19.1679C60.8741 19.5271 58.2998 24.1071 57.1024 26.3521L45.428 27.6992L37.3458 21.862L36.4478 12.4327Z" fill="#D6F8B8"/>
<path id="Vector 42" d="M35.5498 42.0676L28.3656 34.4344L25.6715 32.6383L17.5893 33.0873L10.405 41.1696L2.7718 42.0676L1.87377 45.6597L4.11884 48.3538C5.9149 48.3538 9.68661 48.4436 10.405 48.8028C11.1235 49.162 13.6978 53.742 14.8952 55.9871L26.5695 57.3341L34.6518 51.4969L35.5498 42.0676Z" fill="#D6F8B8"/>
<g id="feedback_2">
<path id="Vector_2" d="M21.5744 56.7975C18.8309 56.8621 16.1351 56.0723 13.8603 54.5374C11.5854 53.0024 9.84397 50.7982 8.87699 48.23H5.89891C4.59219 48.2272 3.33995 47.7061 2.41695 46.7811C1.49396 45.8562 0.975586 44.6028 0.975586 43.2961C0.975586 41.9894 1.49396 40.736 2.41695 39.811C3.33995 38.886 4.59219 38.365 5.89891 38.3622H8.8681C9.835 35.7924 11.5773 33.5869 13.8535 32.0514C16.1297 30.5159 18.8272 29.7265 21.5721 29.7924C24.3169 29.7265 27.0142 30.516 29.2902 32.0515C31.5663 33.587 33.3084 35.7924 34.2751 38.3622H64.2804C65.5871 38.365 66.8394 38.886 67.7624 39.811C68.6854 40.736 69.2037 41.9894 69.2037 43.2961C69.2037 44.6028 68.6854 45.8562 67.7624 46.7811C66.8394 47.7061 65.5871 48.2272 64.2804 48.23H34.2519C33.2881 50.7964 31.5502 52.9996 29.2789 54.5346C27.0075 56.0696 24.3151 56.8604 21.5744 56.7975ZM10.2347 43.3858C10.2264 44.8681 10.5154 46.3371 11.0848 47.7058C11.6542 49.0744 12.4923 50.315 13.5496 51.354C14.6069 52.393 15.8619 53.2094 17.2403 53.7548C18.6186 54.3002 20.0924 54.5636 21.5744 54.5294C36.4909 54.3667 36.6179 32.2403 21.5719 32.0606C20.0749 32.0268 18.5865 32.2965 17.1965 32.8536C15.8065 33.4106 14.5438 34.2434 13.4844 35.3017C12.425 36.36 11.5909 37.6218 11.0324 39.0112C10.4739 40.4006 10.2025 41.8887 10.2347 43.3858ZM34.9219 45.9618H64.2805C64.9851 45.9583 65.6597 45.6758 66.1568 45.1763C66.6538 44.6768 66.9328 44.0008 66.9328 43.2961C66.9328 42.5914 66.6538 41.9154 66.1568 41.4159C65.6597 40.9163 64.9851 40.6339 64.2805 40.6303H34.9241C35.2661 42.3911 35.2654 44.2013 34.9219 45.9618ZM3.49343 44.4135C4.26074 46.2996 6.5757 45.9567 8.22025 45.9618C8.12011 45.4502 8.04911 44.9332 8.00761 44.4135H3.49343ZM3.50229 42.1454H8.0086C8.05009 41.6368 8.11997 41.131 8.21791 40.6303C6.58743 40.6375 4.27666 40.2934 3.50229 42.1454ZM26.6478 49.982C26.3522 49.9815 26.0685 49.8658 25.857 49.6594C25.6454 49.453 25.5227 49.1722 25.5149 48.8767C25.5328 48.3558 25.443 47.8369 25.251 47.3523C25.059 46.8677 24.769 46.4281 24.3992 46.0608C24.0294 45.6936 23.5876 45.4067 23.1017 45.2181C22.6158 45.0296 22.0962 44.9434 21.5755 44.9651C21.0547 44.9433 20.535 45.0293 20.049 45.2178C19.563 45.4063 19.1212 45.6932 18.7514 46.0605C18.3815 46.4277 18.0915 46.8675 17.8996 47.3521C17.7077 47.8368 17.618 48.3558 17.6361 48.8768C17.6219 49.1729 17.4923 49.4517 17.2751 49.6536C17.0578 49.8554 16.7703 49.9641 16.4739 49.9566C16.1775 49.9491 15.8958 49.8258 15.6891 49.6132C15.4824 49.4007 15.3672 49.1156 15.368 48.8191C15.4155 47.2044 16.0903 45.6718 17.2493 44.5464C18.4082 43.4211 19.9601 42.7916 21.5755 42.7916C23.1909 42.7916 24.7427 43.4211 25.9017 44.5464C27.0606 45.6718 27.7355 47.2044 27.783 48.8191C27.7867 48.9705 27.7601 49.1211 27.7047 49.2621C27.6493 49.403 27.5663 49.5315 27.4605 49.6399C27.3547 49.7482 27.2283 49.8343 27.0888 49.8931C26.9492 49.9519 26.7993 49.9821 26.6478 49.982ZM25.527 40.7411C25.1284 40.7512 24.7319 40.6809 24.361 40.5345C23.9902 40.3881 23.6526 40.1685 23.3684 39.8888C23.0842 39.6092 22.8592 39.2752 22.7068 38.9067C22.5544 38.5383 22.4778 38.1429 22.4814 37.7442C22.4796 37.4434 22.5974 37.1543 22.8089 36.9404C23.0203 36.7264 23.3081 36.6053 23.6088 36.6035C23.9096 36.6017 24.1988 36.7195 24.4127 36.931C24.6266 37.1424 24.7478 37.4301 24.7496 37.7309C24.7543 37.9339 24.8383 38.127 24.9836 38.2689C25.1289 38.4109 25.3239 38.4903 25.527 38.4903C25.7301 38.4903 25.9251 38.4109 26.0704 38.2689C26.2157 38.127 26.2997 37.9339 26.3045 37.7309C26.3054 37.582 26.3356 37.4347 26.3933 37.2974C26.4511 37.1602 26.5354 37.0356 26.6413 36.931C26.7473 36.8263 26.8728 36.7435 27.0107 36.6873C27.1486 36.6311 27.2963 36.6026 27.4452 36.6035C27.5941 36.6043 27.7414 36.6345 27.8787 36.6923C28.0159 36.7501 28.1405 36.8344 28.2452 36.9403C28.3498 37.0462 28.4327 37.1717 28.4888 37.3097C28.545 37.4476 28.5735 37.5952 28.5726 37.7442C28.5764 38.1429 28.4998 38.5383 28.3475 38.9068C28.1951 39.2753 27.9701 39.6093 27.6859 39.889C27.4017 40.1687 27.064 40.3883 26.6931 40.5347C26.3222 40.6811 25.9257 40.7513 25.527 40.7411ZM17.6239 40.7411C17.2254 40.7512 16.8288 40.6809 16.4579 40.5345C16.0871 40.3881 15.7495 40.1685 15.4653 39.8888C15.1811 39.6092 14.9561 39.2752 14.8037 38.9067C14.6513 38.5383 14.5747 38.1429 14.5783 37.7442C14.5766 37.4434 14.6944 37.1543 14.9058 36.9404C15.1172 36.7264 15.405 36.6053 15.7058 36.6035C16.0065 36.6017 16.2957 36.7195 16.5096 36.931C16.7236 37.1424 16.8447 37.4301 16.8465 37.7309C16.8511 37.9339 16.935 38.127 17.0802 38.2689C17.2254 38.4108 17.4204 38.4902 17.6234 38.4902C17.8264 38.4902 18.0214 38.4108 18.1666 38.2689C18.3118 38.127 18.3957 37.9339 18.4003 37.7309C18.4021 37.4301 18.5232 37.1424 18.7372 36.931C18.9511 36.7195 19.2402 36.6017 19.541 36.6035C19.8418 36.6052 20.1295 36.7264 20.341 36.9403C20.5524 37.1542 20.6702 37.4434 20.6685 37.7442C20.6722 38.1428 20.5957 38.5381 20.4434 38.9066C20.2912 39.275 20.0663 39.609 19.7822 39.8887C19.4981 40.1684 19.1605 40.388 18.7898 40.5344C18.419 40.6809 18.0225 40.7511 17.6239 40.7411ZM47.5695 27.3205C44.8255 27.3845 42.1295 26.5942 39.8543 25.0589C37.5791 23.5236 35.8373 21.3192 34.8699 18.7507H5.89891C4.59219 18.7479 3.33995 18.2268 2.41695 17.3018C1.49396 16.3768 0.975586 15.1235 0.975586 13.8168C0.975586 12.5101 1.49396 11.2567 2.41695 10.3317C3.33995 9.40674 4.59219 8.88568 5.89891 8.88288H34.8765C35.8404 6.31413 37.5798 4.10901 39.8534 2.57341C42.1271 1.03781 44.8222 0.247851 47.5651 0.313117C50.3097 0.247559 53.0067 1.03721 55.2825 2.57268C57.5583 4.10814 59.3002 6.31339 60.2669 8.88291H64.2805C65.5872 8.88571 66.8395 9.40676 67.7625 10.3317C68.6855 11.2567 69.2038 12.5101 69.2038 13.8168C69.2038 15.1235 68.6855 16.3769 67.7625 17.3019C66.8395 18.2268 65.5872 18.7479 64.2805 18.7507H60.2603C59.2943 21.3185 57.5541 23.5225 55.2805 25.0579C53.0068 26.5932 50.3122 27.3838 47.5695 27.3205ZM36.2244 13.8844C36.2578 16.8765 37.4725 19.7341 39.6038 21.8345C41.735 23.9348 44.6101 25.1077 47.6023 25.0975C50.5946 25.0873 53.4616 23.8949 55.5784 21.78C57.6953 19.6651 58.8905 16.7993 58.9036 13.8071C58.8701 10.815 57.6554 7.95733 55.5242 5.85695C53.3929 3.75657 50.5179 2.58368 47.5256 2.59388C44.5333 2.60408 41.6664 3.79654 39.5495 5.9114C37.4326 8.02626 36.2374 10.8921 36.2244 13.8844ZM60.9137 16.4825H64.2805C64.9852 16.479 65.6598 16.1966 66.1568 15.697C66.6538 15.1975 66.9328 14.5215 66.9328 13.8168C66.9328 13.1121 66.6538 12.4361 66.1568 11.9366C65.6598 11.437 64.9852 11.1546 64.2805 11.1511H60.9148C61.2546 12.912 61.2542 14.7217 60.9137 16.4825ZM3.49565 14.9542C3.71007 15.4106 4.04987 15.7967 4.47539 16.0673C4.90092 16.3379 5.39463 16.4819 5.89891 16.4825H34.2153C34.1165 15.9775 34.0462 15.4672 34.0049 14.9542H3.49565ZM3.49896 12.686H34.0049C34.0453 12.1708 34.1152 11.6583 34.2142 11.1511H5.89891C5.39443 11.1527 4.90085 11.298 4.47586 11.5698C4.05087 11.8416 3.71203 12.2288 3.49896 12.686ZM47.5674 22.6911C46.5299 22.7134 45.4986 22.5272 44.5344 22.1435C43.5703 21.7599 42.693 21.1866 41.9544 20.4577C41.2159 19.7287 40.6312 18.859 40.235 17.9C39.8387 16.9409 39.639 15.9121 39.6477 14.8744C39.645 14.7234 39.6723 14.5734 39.728 14.4329C39.7837 14.2925 39.8666 14.1646 39.9721 14.0564C40.0776 13.9483 40.2034 13.8621 40.3424 13.8029C40.4814 13.7437 40.6307 13.7127 40.7818 13.7116H54.3541C54.5052 13.7126 54.6545 13.7436 54.7935 13.8028C54.9326 13.8619 55.0585 13.9481 55.1639 14.0562C55.2694 14.1644 55.3524 14.2924 55.408 14.4329C55.4637 14.5733 55.4909 14.7234 55.4882 14.8745C55.4966 15.9121 55.2967 16.9409 54.9003 17.8999C54.5039 18.8589 53.9191 19.7286 53.1805 20.4575C52.4419 21.1864 51.5645 21.7597 50.6004 22.1433C49.6362 22.527 48.6048 22.7133 47.5674 22.6911ZM42.0366 15.9797C42.3087 17.2448 43.0062 18.3784 44.0129 19.1915C45.0195 20.0046 46.2745 20.4482 47.5685 20.4482C48.8625 20.4482 50.1175 20.0046 51.1241 19.1915C52.1308 18.3784 52.8283 17.2448 53.1004 15.9797H42.0366ZM53.5589 11.1532C53.2616 11.1532 52.9761 11.0365 52.764 10.8281C52.5519 10.6197 52.4301 10.3364 52.4248 10.0391C52.4216 9.824 52.3339 9.6188 52.1807 9.46782C52.0275 9.31684 51.821 9.23221 51.6059 9.23221C51.3907 9.23221 51.1843 9.31684 51.031 9.46782C50.8778 9.6188 50.7901 9.824 50.7869 10.0391C50.7751 10.3354 50.6478 10.6153 50.4321 10.8189C50.2165 11.0225 49.9298 11.1336 49.6333 11.1284C49.3368 11.1232 49.0541 11.002 48.8458 10.791C48.6375 10.5799 48.5201 10.2957 48.5187 9.99915C48.5452 9.19801 48.882 8.43852 49.458 7.88114C50.0341 7.32376 50.8043 7.01216 51.6059 7.01216C52.4074 7.01216 53.1776 7.32376 53.7537 7.88114C54.3297 8.43852 54.6666 9.19801 54.693 9.99915C54.6957 10.1498 54.6684 10.2995 54.6126 10.4394C54.5568 10.5794 54.4737 10.7068 54.3681 10.8142C54.2625 10.9217 54.1365 11.007 53.9976 11.0652C53.8586 11.1234 53.7096 11.1533 53.5589 11.1532ZM45.482 11.1532C45.1847 11.1532 44.8993 11.0365 44.6872 10.8281C44.4751 10.6197 44.3533 10.3364 44.348 10.0391C44.3485 9.93118 44.3278 9.82422 44.2869 9.72435C44.246 9.62449 44.1857 9.5337 44.1096 9.45719C44.0335 9.38068 43.943 9.31996 43.8434 9.27854C43.7437 9.23711 43.6369 9.21578 43.529 9.21578C43.4211 9.21578 43.3142 9.23711 43.2146 9.27854C43.1149 9.31996 43.0244 9.38068 42.9483 9.45719C42.8722 9.5337 42.812 9.62449 42.7711 9.72435C42.7302 9.82422 42.7094 9.93118 42.71 10.0391C42.6965 10.3371 42.5694 10.6187 42.3548 10.8259C42.1402 11.0332 41.8543 11.1503 41.556 11.1533C41.407 11.1507 41.26 11.1189 41.1234 11.0595C40.9868 11.0001 40.8632 10.9144 40.7597 10.8072C40.6562 10.7 40.5749 10.5735 40.5204 10.4349C40.4658 10.2962 40.4391 10.1482 40.4418 9.99927C40.4683 9.19818 40.8052 8.43877 41.3813 7.88146C41.9573 7.32415 42.7275 7.01259 43.529 7.01259C44.3305 7.01259 45.1006 7.32415 45.6767 7.88146C46.2527 8.43877 46.5896 9.19818 46.6161 9.99927C46.6188 10.1499 46.5915 10.2996 46.5357 10.4395C46.4799 10.5794 46.3968 10.7068 46.2912 10.8143C46.1855 10.9217 46.0596 11.0071 45.9206 11.0653C45.7817 11.1235 45.6327 11.1533 45.482 11.1532Z" fill="#344054"/>
</g>
</g>
</g>
</svg>
